<svg width="113" height="142" viewBox="0 0 113 142" fill="none" xmlns="http://www.w3.org/2000/svg">
<g opacity="0.2" filter="url(#filter0_i_2057_33178)">
<path fill-rule="evenodd" clip-rule="evenodd" d="M55.7895 0.97388C55.6699 0.985618 55.5514 1.00323 55.433 1.0267C54.7587 1.13 54.129 1.42697 53.6201 1.88362C53.6025 1.90005 53.5849 1.91884 53.5673 1.93644C53.2354 2.17473 46.9488 6.6835 37.3823 11.488C27.5673 16.4147 14.7899 21.2414 3.49582 21.2414H0V71.4466C0 97.0844 13.9359 114.728 27.5877 125.615C41.2399 136.505 54.9422 141.063 54.9422 141.063L56.0304 141.426L57.1386 141.063C57.1386 141.063 70.8421 136.505 84.4931 125.615C98.1452 114.726 112.081 97.0829 112.081 71.4466V21.2414H108.558C97.2621 21.2414 84.506 16.4147 74.6898 11.4832C65.0576 6.64444 58.6489 2.0326 58.4027 1.85531L58.4039 1.85648C57.8821 1.39163 57.2348 1.09347 56.5429 1.00073H56.4901C56.3858 0.986648 56.2802 0.978432 56.1747 0.973736H56.1219C56.0105 0.969041 55.8979 0.969041 55.7865 0.973736L55.7895 0.97388ZM56.0357 36.0607C65.3242 36.0607 74.2329 39.7548 80.801 46.3296C87.3691 52.9043 91.0582 61.822 91.0582 71.1199C91.0582 80.4178 87.3691 89.3356 80.801 95.9103C74.2329 102.485 65.3242 106.178 56.0357 106.178C46.7473 106.178 37.8386 102.485 31.2705 95.9103C24.7024 89.3356 21.0121 80.4178 21.0121 71.1199C21.0121 61.822 24.7024 52.9043 31.2705 46.3296C37.8386 39.7548 46.7473 36.0607 56.0357 36.0607ZM75.2098 53.5627C73.8436 53.5991 72.5455 54.166 71.5909 55.145L50.8021 75.982L40.4863 65.6558H40.4875C39.5048 64.6462 38.1598 64.0734 36.7527 64.0652C35.3455 64.057 33.9946 64.6145 33.0002 65.6111C32.007 66.6089 31.4547 67.9635 31.4664 69.3722C31.4793 70.7809 32.055 72.1261 33.0647 73.1051L47.0813 87.135V87.1362C48.0663 88.1175 49.3997 88.6693 50.7894 88.6693C52.179 88.6693 53.5123 88.1176 54.4962 87.1362L79.006 62.5748C80.0145 61.5841 80.5809 60.2295 80.5797 58.8149C80.5774 57.4016 80.0075 56.0482 78.9978 55.0598C77.987 54.0714 76.622 53.5326 75.2102 53.5631L75.2098 53.5627Z" fill="#D3FFF5"/>
</g>
<defs>
<filter id="filter0_i_2057_33178" x="0" y="0.970215" width="112.081" height="142.347" filterUnits="userSpaceOnUse" color-interpolation-filters="sRGB">
<feFlood flood-opacity="0" result="BackgroundImageFix"/>
<feBlend mode="normal" in="SourceGraphic" in2="BackgroundImageFix" result="shape"/>
<feColorMatrix in="SourceAlpha" type="matrix" values="0 0 0 0 0 0 0 0 0 0 0 0 0 0 0 0 0 0 127 0" result="hardAlpha"/>
<feOffset dy="1.89166"/>
<feGaussianBlur stdDeviation="2.36457"/>
<feComposite in2="hardAlpha" operator="arithmetic" k2="-1" k3="1"/>
<feColorMatrix type="matrix" values="0 0 0 0 0 0 0 0 0 0 0 0 0 0 0 0 0 0 0.25 0"/>
<feBlend mode="normal" in2="shape" result="effect1_innerShadow_2057_33178"/>
</filter>
</defs>
</svg>
