<svg width="125" height="59" viewBox="0 0 125 59" fill="none" xmlns="http://www.w3.org/2000/svg">
<g filter="url(#filter0_b_2057_33235)">
<rect width="207" height="59" rx="29.5" fill="url(#paint0_linear_2057_33235)"/>
<circle cx="31" cy="30" r="24" fill="#151515"/>
<path fill-rule="evenodd" clip-rule="evenodd" d="M30.699 45.3979C39.3692 45.3979 46.3979 38.3693 46.3979 29.699C46.3979 21.0287 39.3692 14 30.699 14C22.0287 14 15 21.0287 15 29.699C15 38.3693 22.0287 45.3979 30.699 45.3979ZM25.9554 36.8113H22.2726C21.3994 36.8113 20.9628 36.8113 20.7014 36.6422C20.4188 36.4595 20.2405 36.1528 20.2216 35.8171C20.2041 35.5063 20.4203 35.1275 20.8528 34.3698L20.853 34.3695L28.9164 20.2434C29.3552 19.4745 29.5746 19.0901 29.8539 18.947C30.1555 18.7924 30.5132 18.7921 30.815 18.9463C31.0945 19.089 31.3144 19.4731 31.7544 20.2413L33.6141 23.4883L33.6142 23.4884C33.9341 24.047 34.0941 24.3263 34.1644 24.6209C34.241 24.9418 34.2411 25.276 34.1649 25.5968C34.0948 25.8916 33.935 26.1711 33.6155 26.73L28.7937 35.1652C28.4696 35.7323 28.3075 36.0158 28.0854 36.2278C27.8437 36.4585 27.5506 36.6285 27.2302 36.7238C26.9359 36.8113 26.6091 36.8113 25.9554 36.8113ZM39.0947 36.8113H34.8248C33.9438 36.8113 33.5032 36.8113 33.2409 36.6407C32.9575 36.4564 32.7797 36.1475 32.763 35.8101C32.7474 35.4979 32.9692 35.1174 33.4126 34.3567L35.544 30.7C35.9819 29.9488 36.2008 29.5733 36.478 29.4326C36.7775 29.2806 37.1317 29.2803 37.4316 29.4319C37.709 29.5721 37.9284 29.9474 38.3672 30.6978L38.3673 30.698L40.5058 34.3546C40.9509 35.1159 41.1735 35.4965 41.1583 35.809C41.1418 36.1467 40.9642 36.4559 40.6806 36.6405C40.4183 36.8113 39.9771 36.8113 39.0947 36.8113Z" fill="#F9FBFF"/>
<path d="M72.9322 24.2358H74.6172L79.3322 35.1807H77.1061L76.0858 32.6764H71.34L70.3506 35.1807H68.1709L72.9322 24.2358ZM75.4056 31.0068L73.7206 26.5547L72.0047 31.0068H75.4056Z" fill="#F9FBFF"/>
<path d="M81.4219 24.2358H83.6634L86.6469 32.5064L89.7232 24.2358H91.8259L87.4045 35.1807H85.7196L81.4219 24.2358Z" fill="#F9FBFF"/>
<path d="M98.7865 24.2358H100.472L105.186 35.1807H102.96L101.94 32.6764H97.1943L96.2048 35.1807H94.0254L98.7865 24.2358ZM101.26 31.0068L99.5751 26.5547L97.8591 31.0068H101.26Z" fill="#F9FBFF"/>
<path d="M109.495 24.2358H111.443V33.4184H116.096V35.1807H109.495V24.2358Z" fill="#F9FBFF"/>
<path d="M124.143 24.2358H125.828L130.543 35.1807H128.317L127.297 32.6764H122.551L121.562 35.1807H119.382L124.143 24.2358ZM126.616 31.0068L124.932 26.5547L123.216 31.0068H126.616Z" fill="#F9FBFF"/>
</g>
<defs>
<filter id="filter0_b_2057_33235" x="-81.5485" y="-81.5485" width="370.097" height="222.097" filterUnits="userSpaceOnUse" color-interpolation-filters="sRGB">
<feFlood flood-opacity="0" result="BackgroundImageFix"/>
<feGaussianBlur in="BackgroundImageFix" stdDeviation="40.7742"/>
<feComposite in2="SourceAlpha" operator="in" result="effect1_backgroundBlur_2057_33235"/>
<feBlend mode="normal" in="SourceGraphic" in2="effect1_backgroundBlur_2057_33235" result="shape"/>
</filter>
<linearGradient id="paint0_linear_2057_33235" x1="139.551" y1="-79.8164" x2="139.551" y2="85.4051" gradientUnits="userSpaceOnUse">
<stop stop-color="white" stop-opacity="0"/>
<stop offset="0.864583" stop-color="white" stop-opacity="0.04"/>
<stop offset="1" stop-color="white" stop-opacity="0.08"/>
</linearGradient>
</defs>
</svg>
