<svg width="207" height="59" viewBox="0 0 207 59" fill="none" xmlns="http://www.w3.org/2000/svg">
<g filter="url(#filter0_b_2222_35643)">
<rect width="207" height="59" rx="29.5" fill="url(#paint0_linear_2222_35643)"/>
<circle cx="31" cy="30" r="24" fill="#151515"/>
<path fill-rule="evenodd" clip-rule="evenodd" d="M30.699 45.3979C39.3692 45.3979 46.3979 38.3693 46.3979 29.699C46.3979 21.0287 39.3692 14 30.699 14C22.0287 14 15 21.0287 15 29.699C15 38.3693 22.0287 45.3979 30.699 45.3979ZM25.9554 36.8113H22.2726C21.3994 36.8113 20.9628 36.8113 20.7014 36.6422C20.4188 36.4595 20.2405 36.1528 20.2216 35.8171C20.2041 35.5063 20.4203 35.1275 20.8528 34.3698L20.853 34.3695L28.9164 20.2434C29.3552 19.4745 29.5746 19.0901 29.8539 18.947C30.1555 18.7924 30.5132 18.7921 30.815 18.9463C31.0945 19.089 31.3144 19.4731 31.7544 20.2413L33.6141 23.4883L33.6142 23.4884C33.9341 24.047 34.0941 24.3263 34.1644 24.6209C34.241 24.9418 34.2411 25.276 34.1649 25.5968C34.0948 25.8916 33.935 26.1711 33.6155 26.73L28.7937 35.1652C28.4696 35.7323 28.3075 36.0158 28.0854 36.2278C27.8437 36.4585 27.5506 36.6285 27.2302 36.7238C26.9359 36.8113 26.6091 36.8113 25.9554 36.8113ZM39.0947 36.8113H34.8248C33.9438 36.8113 33.5032 36.8113 33.2409 36.6407C32.9575 36.4564 32.7797 36.1475 32.763 35.8101C32.7474 35.4979 32.9692 35.1174 33.4126 34.3567L35.544 30.7C35.9819 29.9488 36.2008 29.5733 36.478 29.4326C36.7775 29.2806 37.1317 29.2803 37.4316 29.4319C37.709 29.5721 37.9284 29.9474 38.3672 30.6978L38.3673 30.698L40.5058 34.3546C40.9509 35.1159 41.1735 35.4965 41.1583 35.809C41.1418 36.1467 40.9642 36.4559 40.6806 36.6405C40.4183 36.8113 39.9771 36.8113 39.0947 36.8113Z" fill="#F9FBFF"/>
<path d="M72.9322 24.2358H74.6172L79.3322 35.1807H77.1061L76.0858 32.6764H71.34L70.3506 35.1807H68.1709L72.9322 24.2358ZM75.4056 31.0068L73.7206 26.5547L72.0047 31.0068H75.4056Z" fill="#F9FBFF"/>
<path d="M81.4219 24.2358H83.6634L86.6469 32.5064L89.7232 24.2358H91.8259L87.4045 35.1807H85.7196L81.4219 24.2358Z" fill="#F9FBFF"/>
<path d="M98.7865 24.2358H100.472L105.186 35.1807H102.96L101.94 32.6764H97.1943L96.2048 35.1807H94.0254L98.7865 24.2358ZM101.26 31.0068L99.5751 26.5547L97.8591 31.0068H101.26Z" fill="#F9FBFF"/>
<path d="M109.495 24.2358H111.443V33.4184H116.096V35.1807H109.495V24.2358Z" fill="#F9FBFF"/>
<path d="M124.143 24.2358H125.828L130.543 35.1807H128.317L127.297 32.6764H122.551L121.562 35.1807H119.382L124.143 24.2358ZM126.616 31.0068L124.932 26.5547L123.216 31.0068H126.616Z" fill="#F9FBFF"/>
<path d="M134.851 24.2358H137.433L142.735 32.3672H142.766V24.2358H144.714V35.1807H142.241L136.83 26.7865H136.799V35.1807H134.851V24.2358Z" fill="#F9FBFF"/>
<path d="M157.759 26.8022C157.357 26.3693 156.966 26.0808 156.584 25.9365C156.213 25.7922 155.837 25.7201 155.456 25.7201C154.889 25.7201 154.374 25.8231 153.91 26.0293C153.457 26.2251 153.065 26.5033 152.735 26.864C152.405 27.2145 152.148 27.6267 151.962 28.1007C151.787 28.5748 151.699 29.0849 151.699 29.6312C151.699 30.2186 151.787 30.7597 151.962 31.2544C152.148 31.7491 152.405 32.1767 152.735 32.5375C153.065 32.8982 153.457 33.1816 153.91 33.3877C154.374 33.5938 154.889 33.6968 155.456 33.6968C155.899 33.6968 156.327 33.5938 156.739 33.3877C157.161 33.1712 157.553 32.8312 157.914 32.3674L159.522 33.5114C159.027 34.1915 158.424 34.6862 157.712 34.9954C157.002 35.3046 156.244 35.4592 155.44 35.4592C154.595 35.4592 153.817 35.3252 153.106 35.0572C152.405 34.779 151.797 34.3925 151.282 33.8978C150.777 33.3928 150.38 32.7899 150.092 32.0891C149.803 31.3883 149.659 30.6102 149.659 29.7548C149.659 28.8788 149.803 28.0853 150.092 27.3742C150.38 26.6528 150.777 26.0396 151.282 25.5346C151.797 25.0296 152.405 24.6431 153.106 24.3752C153.817 24.0969 154.595 23.9578 155.44 23.9578C156.182 23.9578 156.868 24.0918 157.497 24.3597C158.135 24.6174 158.728 25.0605 159.274 25.6892L157.759 26.8022Z" fill="#F9FBFF"/>
<path d="M163.921 24.2358H165.868V28.5953H170.985V24.2358H172.933V35.1807H170.985V30.3576H165.868V35.1807H163.921V24.2358Z" fill="#F9FBFF"/>
<path d="M178.471 24.2358H185.721V25.9982H180.419V28.688H185.443V30.4503H180.419V33.4184H186V35.1807H178.471V24.2358Z" fill="#F9FBFF"/>
</g>
<defs>
<filter id="filter0_b_2222_35643" x="-81.5485" y="-81.5485" width="370.097" height="222.097" filterUnits="userSpaceOnUse" color-interpolation-filters="sRGB">
<feFlood flood-opacity="0" result="BackgroundImageFix"/>
<feGaussianBlur in="BackgroundImageFix" stdDeviation="40.7742"/>
<feComposite in2="SourceAlpha" operator="in" result="effect1_backgroundBlur_2222_35643"/>
<feBlend mode="normal" in="SourceGraphic" in2="effect1_backgroundBlur_2222_35643" result="shape"/>
</filter>
<linearGradient id="paint0_linear_2222_35643" x1="139.551" y1="-79.8164" x2="139.551" y2="85.4051" gradientUnits="userSpaceOnUse">
<stop stop-color="white" stop-opacity="0"/>
<stop offset="0.864583" stop-color="white" stop-opacity="0.04"/>
<stop offset="1" stop-color="white" stop-opacity="0.08"/>
</linearGradient>
</defs>
</svg>
