<svg width="175" height="59" viewBox="0 0 175 59" fill="none" xmlns="http://www.w3.org/2000/svg">
<g filter="url(#filter0_b_2057_33221)">
<rect width="175" height="59" rx="29.5" fill="url(#paint0_linear_2057_33221)"/>
<path fill-rule="evenodd" clip-rule="evenodd" d="M134.374 26.3138L132.847 24.7745C131.99 25.55 131.226 26.0482 129.977 26.0482C128.107 26.0482 126.812 24.4972 126.812 22.6282V22.5972C126.812 20.7321 128.138 19.2083 129.977 19.2083C131.068 19.2083 131.922 19.6736 132.77 20.4355L134.292 18.679C133.279 17.6844 132.048 17 129.989 17C126.637 17 124.298 19.534 124.298 22.6224V22.6534C124.298 25.7787 126.684 28.2507 129.896 28.2507C131.998 28.2565 133.244 27.5101 134.366 26.3138H134.374ZM105.845 17.1079L110.531 28.0697H108.017L107.02 25.6288H102.403L101.402 28.0697H98.9541L103.63 17.1079H105.845ZM79.2749 25.0535V25.0846H79.2787C79.2787 27.0757 77.6552 28.0703 75.1916 28.0703H70V17.186H75.0633C77.2935 17.186 78.6663 18.2911 78.6663 20.0011V20.0321C78.6663 21.2594 78.009 21.9438 77.2313 22.38C78.4971 22.8608 79.2749 23.5917 79.2749 25.0535ZM74.5497 21.5831C75.6094 21.5831 76.2802 21.2399 76.2802 20.4315L76.2841 20.4043C76.2841 19.6889 75.7221 19.2856 74.7091 19.2856H72.3389V21.5831H74.5497ZM76.8888 24.786C76.8888 25.5944 76.2491 25.9667 75.1874 25.9667H72.3389V23.5762H75.1135C76.3463 23.5762 76.8927 24.0279 76.8927 24.7588L76.8888 24.786ZM84.3203 17.186V28.0703H81.9111V17.186H84.3203ZM97.2295 28.0703V17.186H94.8515V23.8884L89.7376 17.186H87.523V28.0703H89.8932V21.1508L95.1781 28.0703H97.2295ZM106.166 23.5139H103.257L104.708 19.9854L106.166 23.5139ZM121.978 17.186V28.0703H119.927L114.64 21.1508V28.0703H112.272V17.186H114.485L119.6 23.8884V17.186H121.978ZM144.62 25.9376V28.0703L136.3 28.0683V17.1841H144.535V19.3167H138.686V21.5153H143.833V23.6479H138.686V25.9376H144.62Z" fill="#F3BA2F"/>
<path d="M71.09 40.85C71.1167 41.17 71.1867 41.4433 71.3 41.67C71.42 41.89 71.57 42.07 71.75 42.21C71.9367 42.35 72.15 42.4533 72.39 42.52C72.63 42.58 72.8867 42.61 73.16 42.61C73.48 42.61 73.7567 42.57 73.99 42.49C74.2233 42.41 74.4133 42.3033 74.56 42.17C74.7067 42.03 74.8133 41.87 74.88 41.69C74.9533 41.51 74.99 41.32 74.99 41.12C74.99 40.84 74.9267 40.6133 74.8 40.44C74.6733 40.2667 74.5067 40.1267 74.3 40.02C74.1 39.9067 73.8667 39.8167 73.6 39.75C73.34 39.6833 73.07 39.62 72.79 39.56C72.5167 39.4933 72.2467 39.4167 71.98 39.33C71.72 39.2433 71.4867 39.1267 71.28 38.98C71.08 38.8333 70.9167 38.6467 70.79 38.42C70.6633 38.1867 70.6 37.8933 70.6 37.54C70.6 37.2933 70.65 37.0533 70.75 36.82C70.8567 36.5867 71.01 36.38 71.21 36.2C71.4167 36.02 71.6733 35.8767 71.98 35.77C72.2867 35.6633 72.64 35.61 73.04 35.61C73.4467 35.61 73.8 35.6667 74.1 35.78C74.4067 35.8933 74.66 36.05 74.86 36.25C75.06 36.4433 75.21 36.67 75.31 36.93C75.41 37.19 75.46 37.4667 75.46 37.76H74.81C74.81 37.4867 74.76 37.25 74.66 37.05C74.5667 36.85 74.4367 36.6867 74.27 36.56C74.1033 36.4333 73.9133 36.34 73.7 36.28C73.4867 36.22 73.2667 36.19 73.04 36.19C72.6933 36.19 72.4 36.24 72.16 36.34C71.9267 36.4333 71.74 36.5567 71.6 36.71C71.46 36.8633 71.3633 37.0333 71.31 37.22C71.2567 37.4067 71.2467 37.5933 71.28 37.78C71.32 38.0133 71.4133 38.2 71.56 38.34C71.7067 38.48 71.8867 38.5967 72.1 38.69C72.3133 38.7767 72.5467 38.85 72.8 38.91C73.06 38.9633 73.3233 39.0233 73.59 39.09C73.8567 39.15 74.1133 39.2233 74.36 39.31C74.6133 39.3967 74.8367 39.5133 75.03 39.66C75.2233 39.8067 75.3767 39.9967 75.49 40.23C75.61 40.4567 75.67 40.7433 75.67 41.09C75.67 41.7567 75.44 42.2733 74.98 42.64C74.52 43.0067 73.8733 43.19 73.04 43.19C72.6667 43.19 72.32 43.14 72 43.04C71.68 42.9467 71.4033 42.8033 71.17 42.61C70.9367 42.41 70.7533 42.1667 70.62 41.88C70.4933 41.5867 70.43 41.2433 70.43 40.85H71.09ZM77.6933 43V35.8H78.7333L81.0933 42.15H81.1133L83.4333 35.8H84.4633V43H83.7833V36.58H83.7633L81.4033 43H80.7633L78.3933 36.58H78.3733V43H77.6933ZM86.1934 43L89.0234 35.8H89.7934L92.5534 43H91.8534L91.0234 40.74H87.7434L86.8934 43H86.1934ZM87.9734 40.16H90.7934L89.3834 36.38L87.9734 40.16ZM97.1133 39.15C97.3666 39.15 97.5999 39.1233 97.8133 39.07C98.0333 39.0167 98.2233 38.9333 98.3833 38.82C98.5433 38.7 98.6699 38.55 98.7633 38.37C98.8566 38.19 98.9033 37.9733 98.9033 37.72C98.9033 37.4533 98.8533 37.2333 98.7533 37.06C98.6599 36.8867 98.5299 36.75 98.3633 36.65C98.2033 36.55 98.0166 36.48 97.8033 36.44C97.5966 36.4 97.3799 36.38 97.1533 36.38H94.9933V39.15H97.1133ZM94.9933 39.73V43H94.3133V35.8H97.1333C97.9266 35.8 98.5333 35.95 98.9533 36.25C99.3733 36.5433 99.5833 37.0233 99.5833 37.69C99.5833 38.1433 99.4899 38.5033 99.3033 38.77C99.1233 39.0367 98.8266 39.2633 98.4133 39.45C98.6266 39.5233 98.7933 39.63 98.9133 39.77C99.0333 39.91 99.1233 40.07 99.1833 40.25C99.2433 40.43 99.2799 40.62 99.2933 40.82C99.3133 41.02 99.3266 41.2133 99.3333 41.4C99.3399 41.6733 99.3499 41.9 99.3633 42.08C99.3833 42.26 99.4033 42.4067 99.4233 42.52C99.4499 42.6333 99.4799 42.7233 99.5133 42.79C99.5466 42.85 99.5866 42.8967 99.6333 42.93V43H98.8833C98.8099 42.88 98.7566 42.7133 98.7233 42.5C98.6966 42.2867 98.6733 42.0633 98.6533 41.83C98.6399 41.5967 98.6266 41.37 98.6133 41.15C98.6066 40.93 98.5899 40.75 98.5633 40.61C98.5233 40.4167 98.4566 40.2633 98.3633 40.15C98.2766 40.03 98.1699 39.94 98.0433 39.88C97.9166 39.82 97.7733 39.78 97.6133 39.76C97.4599 39.74 97.2999 39.73 97.1333 39.73H94.9933ZM100.967 35.8H106.207V36.38H103.927V43H103.247V36.38H100.967V35.8ZM116.667 37.89C116.527 37.2767 116.267 36.84 115.887 36.58C115.507 36.32 115.011 36.19 114.397 36.19C113.964 36.19 113.591 36.2767 113.277 36.45C112.964 36.6233 112.704 36.8567 112.497 37.15C112.297 37.4433 112.147 37.7833 112.047 38.17C111.954 38.55 111.907 38.9533 111.907 39.38C111.907 39.78 111.947 40.1733 112.027 40.56C112.114 40.9467 112.254 41.2933 112.447 41.6C112.641 41.9 112.901 42.1433 113.227 42.33C113.554 42.5167 113.964 42.61 114.457 42.61C114.764 42.61 115.044 42.56 115.297 42.46C115.551 42.36 115.771 42.2233 115.957 42.05C116.151 41.87 116.311 41.66 116.437 41.42C116.571 41.18 116.671 40.9167 116.737 40.63H117.447C117.367 40.9767 117.251 41.3067 117.097 41.62C116.944 41.9267 116.741 42.1967 116.487 42.43C116.241 42.6633 115.937 42.85 115.577 42.99C115.224 43.1233 114.807 43.19 114.327 43.19C113.774 43.19 113.301 43.09 112.907 42.89C112.514 42.6833 112.191 42.4067 111.937 42.06C111.691 41.7133 111.511 41.3133 111.397 40.86C111.284 40.4 111.227 39.9133 111.227 39.4C111.227 38.7133 111.311 38.13 111.477 37.65C111.651 37.17 111.887 36.78 112.187 36.48C112.487 36.1733 112.841 35.9533 113.247 35.82C113.654 35.68 114.097 35.61 114.577 35.61C114.944 35.61 115.284 35.66 115.597 35.76C115.917 35.8533 116.197 35.9967 116.437 36.19C116.684 36.3833 116.884 36.6233 117.037 36.91C117.197 37.19 117.307 37.5167 117.367 37.89H116.667ZM119.564 43V35.8H120.244V38.89H124.504V35.8H125.184V43H124.504V39.47H120.244V43H119.564ZM126.931 43L129.761 35.8H130.531L133.291 43H132.591L131.761 40.74H128.481L127.631 43H126.931ZM128.711 40.16H131.531L130.121 36.38L128.711 40.16ZM135.301 43V35.8H135.981V43H135.301ZM139.324 36.72H139.304V43H138.624V35.8H139.394L143.554 42.09H143.574V35.8H144.254V43H143.464L139.324 36.72Z" fill="#F3BA2F"/>
<path opacity="0.2" d="M33 54C46.2548 54 57 43.2548 57 30C57 16.7452 46.2548 6 33 6C19.7452 6 9 16.7452 9 30C9 43.2548 19.7452 54 33 54Z" fill="#F3BA2F"/>
<path fill-rule="evenodd" clip-rule="evenodd" d="M27.9827 27.9371L33.0027 22.9194L38.0247 27.9412L40.944 25.02L33.0027 17.0769L25.0614 25.0179L27.9827 27.9371ZM20.0771 30.0004L22.9974 27.0802L25.9177 30.0004L22.9974 32.9206L20.0771 30.0004ZM33.0027 37.0826L27.9827 32.0628L25.0573 34.98L25.0614 34.9841L33.0027 42.9231L40.944 34.98L40.946 34.9779L38.0247 32.0608L33.0027 37.0826ZM40.0828 30.0011L43.003 27.081L45.9233 30.0011L43.003 32.9213L40.0828 30.0011ZM33.0027 27.0348L35.9649 29.999H35.9669L35.9649 30.001L33.0027 32.9651L30.0405 30.0051L30.0365 29.999L30.0405 29.9949L30.5591 29.4764L30.8122 29.2253L33.0027 27.0348Z" fill="#F3BA2F"/>
</g>
<defs>
<filter id="filter0_b_2057_33221" x="-81.5485" y="-81.5485" width="338.097" height="222.097" filterUnits="userSpaceOnUse" color-interpolation-filters="sRGB">
<feFlood flood-opacity="0" result="BackgroundImageFix"/>
<feGaussianBlur in="BackgroundImageFix" stdDeviation="40.7742"/>
<feComposite in2="SourceAlpha" operator="in" result="effect1_backgroundBlur_2057_33221"/>
<feBlend mode="normal" in="SourceGraphic" in2="effect1_backgroundBlur_2057_33221" result="shape"/>
</filter>
<linearGradient id="paint0_linear_2057_33221" x1="117.978" y1="-79.8164" x2="117.978" y2="85.4051" gradientUnits="userSpaceOnUse">
<stop stop-color="white" stop-opacity="0"/>
<stop offset="0.864583" stop-color="white" stop-opacity="0.04"/>
<stop offset="1" stop-color="white" stop-opacity="0.08"/>
</linearGradient>
</defs>
</svg>
