<svg width="199" height="59" viewBox="0 0 199 59" fill="none" xmlns="http://www.w3.org/2000/svg">
<g filter="url(#filter0_b_2222_35715)">
<rect width="199" height="59" rx="29.5" fill="url(#paint0_linear_2222_35715)"/>
<circle cx="31" cy="30" r="24" fill="#151515"/>
<path d="M77.0693 30.0621C77.0693 30.3149 76.8595 30.5277 76.5973 30.5277H67.9047C68.1276 32.7095 69.7402 34.7051 72.0215 34.7051C73.5818 34.7051 74.7355 34.1064 75.6009 32.8426C75.6926 32.7095 75.8237 32.6164 75.9811 32.6164C76.2302 32.6164 76.4137 32.8027 76.4137 33.0554C76.4137 33.1486 76.3875 33.2151 76.3482 33.2816C75.4698 34.8248 73.726 35.5831 72.0215 35.5831C69.0978 35.5831 67 32.9224 67 30.0887C67 27.2417 69.0847 24.5942 72.0215 24.5942C74.9453 24.5942 77.0562 27.2284 77.0693 30.0621ZM76.1384 29.6497C75.9549 27.4678 74.3029 25.4723 72.0215 25.4723C69.7402 25.4723 68.1276 27.4678 67.9047 29.6497H76.1384ZM87.6237 24.8071C87.8728 24.8071 88.0564 25.0333 88.0564 25.2461C88.0564 25.4989 87.8728 25.6851 87.6237 25.6851H85.2899V34.9845C85.2899 35.2106 85.1064 35.4235 84.8573 35.4235C84.6082 35.4235 84.4246 35.1973 84.4246 34.9845V25.6851H82.1826C81.9335 25.6851 81.75 25.4989 81.75 25.2461C81.75 25.02 81.9335 24.8071 82.1826 24.8071H84.4246V21.4146C84.4246 21.1885 84.5951 20.9756 84.8179 20.949C85.0933 20.9224 85.3031 21.122 85.3031 21.388V24.8071H87.6237ZM101.862 29.3038V34.9313C101.862 35.184 101.639 35.3703 101.43 35.3703C101.181 35.3703 100.997 35.184 100.997 34.9313V29.3038C100.997 27.4013 99.935 25.5122 97.8503 25.5122C95.1757 25.5122 94.0219 27.8803 94.1792 30.3149C94.1792 30.3814 94.2055 30.6608 94.2055 30.7007V34.918C94.2055 35.1441 94.035 35.357 93.8121 35.3836C93.5368 35.4102 93.327 35.2106 93.327 34.9446V16.439C93.327 16.2129 93.5106 16 93.7597 16C94.0088 16 94.1924 16.2262 94.1924 16.439V26.8958C94.9397 25.5388 96.277 24.6208 97.8372 24.6208C100.407 24.6208 101.862 26.8958 101.862 29.3038ZM117.478 30.0621C117.478 30.3149 117.268 30.5277 117.006 30.5277H108.313C108.536 32.7095 110.149 34.7051 112.43 34.7051C113.99 34.7051 115.144 34.1064 116.009 32.8426C116.101 32.7095 116.232 32.6164 116.389 32.6164C116.639 32.6164 116.822 32.8027 116.822 33.0554C116.822 33.1486 116.796 33.2151 116.757 33.2816C115.878 34.8248 114.134 35.5831 112.43 35.5831C109.506 35.5831 107.408 32.9224 107.408 30.0887C107.408 27.2417 109.493 24.5942 112.43 24.5942C115.341 24.5942 117.451 27.2284 117.478 30.0621ZM116.534 29.6497C116.35 27.4678 114.698 25.4723 112.417 25.4723C110.149 25.4723 108.523 27.4678 108.3 29.6497H116.534ZM128.15 25.2195C128.15 25.4989 127.993 25.6585 127.744 25.6984C125.187 26.0843 124.033 28.1996 124.033 30.6608V34.878C124.033 35.1042 123.863 35.3171 123.64 35.3437C123.364 35.3703 123.155 35.1707 123.155 34.9047V25.286C123.155 25.0599 123.325 24.847 123.548 24.8204C123.823 24.7938 124.033 24.9933 124.033 25.2594V27.2151C124.754 25.9778 126.183 24.8071 127.678 24.8071C127.901 24.8071 128.15 24.9667 128.15 25.2195ZM142.454 30.0621C142.454 30.3149 142.244 30.5277 141.982 30.5277H133.29C133.512 32.7095 135.125 34.7051 137.406 34.7051C138.967 34.7051 140.12 34.1064 140.986 32.8426C141.078 32.7095 141.209 32.6164 141.366 32.6164C141.615 32.6164 141.799 32.8027 141.799 33.0554C141.799 33.1486 141.772 33.2151 141.733 33.2816C140.855 34.8248 139.111 35.5831 137.406 35.5831C134.483 35.5831 132.385 32.9224 132.385 30.0887C132.385 27.2417 134.47 24.5942 137.406 24.5942C140.33 24.5942 142.441 27.2284 142.454 30.0621ZM141.523 29.6497C141.34 27.4678 139.688 25.4723 137.406 25.4723C135.125 25.4723 133.512 27.4678 133.29 29.6497H141.523ZM156.509 25.3259V34.9845C156.509 35.2372 156.286 35.4235 156.077 35.4235C155.827 35.4235 155.644 35.2372 155.644 34.9845V33.1486C154.923 34.5987 153.651 35.6497 152.025 35.6497C149.442 35.6497 148.013 33.3747 148.013 30.9667V25.3126C148.013 25.0865 148.197 24.8736 148.446 24.8736C148.695 24.8736 148.879 25.0998 148.879 25.3126V30.9667C148.879 32.8692 149.941 34.7583 152.025 34.7583C154.949 34.7583 155.644 31.9778 155.644 28.9047V25.2993C155.644 25.0333 155.919 24.7672 156.234 24.8869C156.391 24.9667 156.509 25.1397 156.509 25.3259ZM178.523 29.2639V34.918C178.523 35.1707 178.3 35.357 178.09 35.357C177.841 35.357 177.657 35.1707 177.657 34.918V29.2639C177.657 27.3614 176.595 25.4989 174.511 25.4989C171.889 25.4989 170.892 28.3459 170.892 30.5543V34.918C170.892 35.1707 170.669 35.357 170.459 35.357C170.21 35.357 170.027 35.1707 170.027 34.918V29.2639C170.027 27.3614 168.965 25.4989 166.88 25.4989C164.232 25.4989 163.143 27.6142 163.235 30.4346C163.235 30.5011 163.261 30.6208 163.235 30.6608V34.9047C163.235 35.1308 163.065 35.3437 162.842 35.3703C162.567 35.3969 162.357 35.1973 162.357 34.9313V25.286C162.357 25.0599 162.527 24.847 162.75 24.8204C163.025 24.7938 163.235 24.9933 163.235 25.2594V26.8692C163.983 25.5122 165.32 24.6208 166.88 24.6208C168.65 24.6208 170.027 25.765 170.591 27.4279C171.312 25.7783 172.715 24.6208 174.511 24.6208C177.067 24.6208 178.523 26.8692 178.523 29.2639Z" fill="#E9F0FF" stroke="#E9F0FF" stroke-width="0.24475"/>
<path opacity="0.6" d="M30.9946 35.552L40 30.1529L30.9946 26.0073L22 30.1529L30.9946 35.552Z" fill="#E9F0FF"/>
<path opacity="0.45" d="M30.9946 26.0071V15L22 30.1526L30.9946 35.5517V26.0071Z" fill="#E9F0FF"/>
<path opacity="0.8" d="M30.9917 35.5517L39.9971 30.1526L30.9917 15V26.0071V35.5517Z" fill="#E9F0FF"/>
<path opacity="0.45" d="M30.9946 37.2773L22 31.8892L30.9946 44.7546V37.2773Z" fill="#E9F0FF"/>
<path opacity="0.8" d="M39.9971 31.8892L30.9917 37.2773V44.7546L39.9971 31.8892Z" fill="#E9F0FF"/>
</g>
<defs>
<filter id="filter0_b_2222_35715" x="-81.5485" y="-81.5485" width="362.097" height="222.097" filterUnits="userSpaceOnUse" color-interpolation-filters="sRGB">
<feFlood flood-opacity="0" result="BackgroundImageFix"/>
<feGaussianBlur in="BackgroundImageFix" stdDeviation="40.7742"/>
<feComposite in2="SourceAlpha" operator="in" result="effect1_backgroundBlur_2222_35715"/>
<feBlend mode="normal" in="SourceGraphic" in2="effect1_backgroundBlur_2222_35715" result="shape"/>
</filter>
<linearGradient id="paint0_linear_2222_35715" x1="134.157" y1="-79.8164" x2="134.157" y2="85.4051" gradientUnits="userSpaceOnUse">
<stop stop-color="white" stop-opacity="0"/>
<stop offset="0.864583" stop-color="white" stop-opacity="0.04"/>
<stop offset="1" stop-color="white" stop-opacity="0.08"/>
</linearGradient>
</defs>
</svg>
