<svg width="166" height="59" viewBox="0 0 166 59" fill="none" xmlns="http://www.w3.org/2000/svg">
<g filter="url(#filter0_b_2057_33211)">
<rect x="-33" width="199" height="59" rx="29.5" fill="url(#paint0_linear_2057_33211)"/>
<circle cx="-2" cy="30" r="24" fill="#151515"/>
<path d="M44.0693 30.0621C44.0693 30.3149 43.8595 30.5277 43.5973 30.5277H34.9047C35.1276 32.7095 36.7402 34.7051 39.0215 34.7051C40.5818 34.7051 41.7355 34.1064 42.6009 32.8426C42.6926 32.7095 42.8237 32.6164 42.9811 32.6164C43.2302 32.6164 43.4137 32.8027 43.4137 33.0554C43.4137 33.1486 43.3875 33.2151 43.3482 33.2816C42.4698 34.8248 40.726 35.5831 39.0215 35.5831C36.0978 35.5831 34 32.9224 34 30.0887C34 27.2417 36.0847 24.5942 39.0215 24.5942C41.9453 24.5942 44.0562 27.2284 44.0693 30.0621ZM43.1384 29.6497C42.9549 27.4678 41.3029 25.4723 39.0215 25.4723C36.7402 25.4723 35.1276 27.4678 34.9047 29.6497H43.1384ZM54.6237 24.8071C54.8728 24.8071 55.0564 25.0333 55.0564 25.2461C55.0564 25.4989 54.8728 25.6851 54.6237 25.6851H52.2899V34.9845C52.2899 35.2106 52.1064 35.4235 51.8573 35.4235C51.6082 35.4235 51.4246 35.1973 51.4246 34.9845V25.6851H49.1826C48.9335 25.6851 48.75 25.4989 48.75 25.2461C48.75 25.02 48.9335 24.8071 49.1826 24.8071H51.4246V21.4146C51.4246 21.1885 51.5951 20.9756 51.8179 20.949C52.0933 20.9224 52.3031 21.122 52.3031 21.388V24.8071H54.6237ZM68.8623 29.3038V34.9313C68.8623 35.184 68.6394 35.3703 68.4297 35.3703C68.1806 35.3703 67.997 35.184 67.997 34.9313V29.3038C67.997 27.4013 66.935 25.5122 64.8503 25.5122C62.1757 25.5122 61.0219 27.8803 61.1792 30.3149C61.1792 30.3814 61.2055 30.6608 61.2055 30.7007V34.918C61.2055 35.1441 61.035 35.357 60.8121 35.3836C60.5368 35.4102 60.327 35.2106 60.327 34.9446V16.439C60.327 16.2129 60.5106 16 60.7597 16C61.0088 16 61.1924 16.2262 61.1924 16.439V26.8958C61.9397 25.5388 63.277 24.6208 64.8372 24.6208C67.407 24.6208 68.8623 26.8958 68.8623 29.3038ZM84.4776 30.0621C84.4776 30.3149 84.2678 30.5277 84.0056 30.5277H75.313C75.5359 32.7095 77.1485 34.7051 79.4299 34.7051C80.9901 34.7051 82.1438 34.1064 83.0092 32.8426C83.101 32.7095 83.2321 32.6164 83.3894 32.6164C83.6385 32.6164 83.8221 32.8027 83.8221 33.0554C83.8221 33.1486 83.7958 33.2151 83.7565 33.2816C82.8781 34.8248 81.1343 35.5831 79.4299 35.5831C76.5061 35.5831 74.4083 32.9224 74.4083 30.0887C74.4083 27.2417 76.493 24.5942 79.4299 24.5942C82.3405 24.5942 84.4514 27.2284 84.4776 30.0621ZM83.5336 29.6497C83.3501 27.4678 81.6981 25.4723 79.4167 25.4723C77.1485 25.4723 75.5228 27.4678 75.2999 29.6497H83.5336ZM95.15 25.2195C95.15 25.4989 94.9927 25.6585 94.7436 25.6984C92.1869 26.0843 91.0331 28.1996 91.0331 30.6608V34.878C91.0331 35.1042 90.8627 35.3171 90.6398 35.3437C90.3645 35.3703 90.1547 35.1707 90.1547 34.9047V25.286C90.1547 25.0599 90.3252 24.847 90.548 24.8204C90.8234 24.7938 91.0331 24.9933 91.0331 25.2594V27.2151C91.7543 25.9778 93.1834 24.8071 94.678 24.8071C94.9009 24.8071 95.15 24.9667 95.15 25.2195ZM109.454 30.0621C109.454 30.3149 109.244 30.5277 108.982 30.5277H100.29C100.512 32.7095 102.125 34.7051 104.406 34.7051C105.967 34.7051 107.12 34.1064 107.986 32.8426C108.078 32.7095 108.209 32.6164 108.366 32.6164C108.615 32.6164 108.799 32.8027 108.799 33.0554C108.799 33.1486 108.772 33.2151 108.733 33.2816C107.855 34.8248 106.111 35.5831 104.406 35.5831C101.483 35.5831 99.3849 32.9224 99.3849 30.0887C99.3849 27.2417 101.47 24.5942 104.406 24.5942C107.33 24.5942 109.441 27.2284 109.454 30.0621ZM108.523 29.6497C108.34 27.4678 106.688 25.4723 104.406 25.4723C102.125 25.4723 100.512 27.4678 100.29 29.6497H108.523ZM123.509 25.3259V34.9845C123.509 35.2372 123.286 35.4235 123.077 35.4235C122.827 35.4235 122.644 35.2372 122.644 34.9845V33.1486C121.923 34.5987 120.651 35.6497 119.025 35.6497C116.442 35.6497 115.013 33.3747 115.013 30.9667V25.3126C115.013 25.0865 115.197 24.8736 115.446 24.8736C115.695 24.8736 115.879 25.0998 115.879 25.3126V30.9667C115.879 32.8692 116.941 34.7583 119.025 34.7583C121.949 34.7583 122.644 31.9778 122.644 28.9047V25.2993C122.644 25.0333 122.919 24.7672 123.234 24.8869C123.391 24.9667 123.509 25.1397 123.509 25.3259ZM145.523 29.2639V34.918C145.523 35.1707 145.3 35.357 145.09 35.357C144.841 35.357 144.657 35.1707 144.657 34.918V29.2639C144.657 27.3614 143.595 25.4989 141.511 25.4989C138.889 25.4989 137.892 28.3459 137.892 30.5543V34.918C137.892 35.1707 137.669 35.357 137.459 35.357C137.21 35.357 137.027 35.1707 137.027 34.918V29.2639C137.027 27.3614 135.965 25.4989 133.88 25.4989C131.232 25.4989 130.143 27.6142 130.235 30.4346C130.235 30.5011 130.261 30.6208 130.235 30.6608V34.9047C130.235 35.1308 130.065 35.3437 129.842 35.3703C129.567 35.3969 129.357 35.1973 129.357 34.9313V25.286C129.357 25.0599 129.527 24.847 129.75 24.8204C130.025 24.7938 130.235 24.9933 130.235 25.2594V26.8692C130.983 25.5122 132.32 24.6208 133.88 24.6208C135.65 24.6208 137.027 25.765 137.591 27.4279C138.312 25.7783 139.715 24.6208 141.511 24.6208C144.067 24.6208 145.523 26.8692 145.523 29.2639Z" fill="#E9F0FF" stroke="#E9F0FF" stroke-width="0.24475"/>
<path opacity="0.6" d="M-2.00542 35.552L7 30.1529L-2.00542 26.0073L-11 30.1529L-2.00542 35.552Z" fill="#E9F0FF"/>
<path opacity="0.8" d="M-2.0083 35.5517L6.99712 30.1526L-2.0083 15V26.0071V35.5517Z" fill="#E9F0FF"/>
<path opacity="0.8" d="M6.99712 31.8892L-2.0083 37.2773V44.7546L6.99712 31.8892Z" fill="#E9F0FF"/>
<path d="M91 59L-33 59L-33 6.03668e-07L91 1.14441e-05L91 59Z" fill="url(#paint1_linear_2057_33211)"/>
</g>
<defs>
<filter id="filter0_b_2057_33211" x="-114.548" y="-81.5485" width="362.097" height="222.097" filterUnits="userSpaceOnUse" color-interpolation-filters="sRGB">
<feFlood flood-opacity="0" result="BackgroundImageFix"/>
<feGaussianBlur in="BackgroundImageFix" stdDeviation="40.7742"/>
<feComposite in2="SourceAlpha" operator="in" result="effect1_backgroundBlur_2057_33211"/>
<feBlend mode="normal" in="SourceGraphic" in2="effect1_backgroundBlur_2057_33211" result="shape"/>
</filter>
<linearGradient id="paint0_linear_2057_33211" x1="101.157" y1="-79.8164" x2="101.157" y2="85.4051" gradientUnits="userSpaceOnUse">
<stop stop-color="white" stop-opacity="0"/>
<stop offset="0.864583" stop-color="white" stop-opacity="0.04"/>
<stop offset="1" stop-color="white" stop-opacity="0.08"/>
</linearGradient>
<linearGradient id="paint1_linear_2057_33211" x1="-33" y1="57.2479" x2="71.8095" y2="57.2479" gradientUnits="userSpaceOnUse">
<stop stop-color="#00010A"/>
<stop offset="1" stop-color="#121619" stop-opacity="0"/>
</linearGradient>
</defs>
</svg>
