<svg width="29" height="20" viewBox="0 0 29 20" fill="none" xmlns="http://www.w3.org/2000/svg">
<path d="M27.8282 7.16547L26.0427 10.439C25.974 10.5611 25.829 10.6451 25.6611 10.6298L27.4467 7.35623C27.6146 7.36386 27.7596 7.28756 27.8282 7.16547Z" fill="url(#paint0_linear_2057_33269)"/>
<path d="M7.91516 1.28284L6.12959 4.5564C6.12959 4.5564 6.09906 4.60981 6.07617 4.62507L7.86175 1.35914C7.86175 1.35914 7.8999 1.31336 7.91516 1.29047" fill="#858585"/>
<path d="M7.8588 1.35913L6.07322 4.63269C5.20332 5.59416 4.51656 6.48694 4.07398 7.04398C4.05872 7.05925 4.05109 7.07451 4.04346 7.0974L5.82903 3.82384C5.82903 3.82384 5.85193 3.79332 5.85956 3.77042C6.29451 3.20575 6.9889 2.3206 7.8588 1.35913Z" fill="url(#paint1_linear_2057_33269)"/>
<path d="M27.4479 7.36425L25.6623 10.6302L0.46582 9.23376L2.25903 5.96783L27.4479 7.36425Z" fill="url(#paint2_linear_2057_33269)"/>
<path d="M2.26182 5.96764L0.468612 9.23357C0.125231 9.21067 -0.0960583 8.85203 0.0412939 8.60022L1.8345 5.33429C1.69715 5.5861 1.91081 5.95237 2.26182 5.96764Z" fill="url(#paint3_linear_2057_33269)"/>
<path d="M6.70832 0.000461183C6.81515 0.000461183 6.91435 0.0462452 7.00592 0.114921L7.79951 0.77879C7.99791 0.939034 8.0208 1.19848 7.87582 1.35872C7.00592 2.32019 6.31916 3.21298 5.87658 3.77001C5.67055 4.02946 5.89947 4.42625 6.26575 4.44914L27.3493 5.61664C27.5935 5.6319 27.8071 5.8303 27.8224 6.05922L27.8758 6.9749C27.8911 7.20382 27.7003 7.37932 27.4561 7.36406L2.25964 5.96765C1.87811 5.94476 1.65682 5.51744 1.88574 5.258C3.77051 3.18245 4.32755 2.34308 6.37257 0.122552C6.45651 0.0309839 6.5786 -0.00716949 6.70069 0.000461183H6.70832Z" fill="url(#paint4_linear_2057_33269)"/>
<path d="M24.0779 12.904L22.2924 16.1775C22.4297 15.9181 22.2008 15.5671 21.8574 15.5518L23.643 12.2783C23.9864 12.2935 24.2153 12.6445 24.0779 12.904Z" fill="url(#paint5_linear_2057_33269)"/>
<path fill-rule="evenodd" clip-rule="evenodd" d="M26.2939 14.666L28.0795 11.3924C28.0642 11.4153 28.049 11.4382 28.0261 11.4611C27.129 12.4446 26.533 13.1509 25.9385 13.8554C25.2738 14.643 24.6111 15.4284 23.5316 16.5965C23.4553 16.6804 23.3332 16.7186 23.2035 16.7186C23.1043 16.7186 22.9975 16.6728 22.9059 16.6041L22.9031 16.6093L22.1126 15.9556L22.1127 15.9555C21.9563 15.814 21.9017 15.607 21.9843 15.4482L20.2051 18.7101C20.1136 18.8779 20.1592 19.0913 20.3267 19.2287L20.3267 19.2288L21.1202 19.8774L21.2224 19.6906L21.1203 19.8777C21.2043 19.9464 21.3111 19.9922 21.4179 19.9922C21.54 19.9998 21.6621 19.9616 21.7461 19.8701C22.8255 18.702 23.4883 17.9166 24.1529 17.129C24.7474 16.4245 25.3434 15.7182 26.2405 14.7346C26.2634 14.7117 26.2939 14.666 26.2939 14.666Z" fill="url(#paint6_linear_2057_33269)"/>
<path d="M23.6478 12.2775L21.8622 15.5511L0.770996 14.3836L2.5642 11.11L23.6478 12.2775Z" fill="url(#paint7_linear_2057_33269)"/>
<path fill-rule="evenodd" clip-rule="evenodd" d="M2.0354 9.75998L0.242188 13.0259C0.242188 12.9572 0.249818 12.8886 0.280341 12.8351L2.06069 9.57117C2.03368 9.62308 2.02058 9.68771 2.02777 9.75235L2.0354 9.75998ZM0.977428 12.7085L0.303233 13.9416L0.242188 13.0259L2.0354 9.76L2.08856 10.6714L2.09034 10.6681C2.1056 10.8971 2.31163 11.0955 2.56344 11.1107L0.777862 14.3843C0.533681 14.369 0.320022 14.1706 0.30476 13.9417L0.977428 12.7085Z" fill="url(#paint8_linear_2057_33269)"/>
<path d="M27.6527 10.7669C28.0342 10.7898 28.2555 11.2171 28.0266 11.4689C26.1265 13.5521 25.5771 14.3915 23.5321 16.6044C23.4482 16.6959 23.3261 16.7341 23.204 16.7264C23.0972 16.7264 22.9903 16.6807 22.9064 16.612L22.1204 15.9557C21.9297 15.7955 21.8991 15.5361 22.0441 15.3682C22.914 14.4067 23.6008 13.5139 24.0434 12.9569C24.2494 12.6974 24.0128 12.3006 23.6466 12.2778L2.56302 11.1103C2.31884 11.095 2.10518 10.8966 2.08991 10.6677L2.0365 9.752C2.02124 9.52308 2.21201 9.35521 2.45619 9.37047L27.6527 10.7669Z" fill="url(#paint9_linear_2057_33269)"/>
<defs>
<linearGradient id="paint0_linear_2057_33269" x1="25.6498" y1="11.6042" x2="28.7983" y2="9.43033" gradientUnits="userSpaceOnUse">
<stop stop-color="#336B43"/>
<stop offset="0.915024" stop-color="#59A658"/>
</linearGradient>
<linearGradient id="paint1_linear_2057_33269" x1="7.88548" y1="-2.58147" x2="1.92825" y2="1.91659" gradientUnits="userSpaceOnUse">
<stop offset="0.312295" stop-color="#53AE93"/>
<stop offset="0.834928" stop-color="#1D561C"/>
</linearGradient>
<linearGradient id="paint2_linear_2057_33269" x1="27.3963" y1="2.42991" x2="26.5483" y2="11.995" gradientUnits="userSpaceOnUse">
<stop offset="0.297024" stop-color="#53AE78"/>
<stop offset="0.834928" stop-color="#1C5633"/>
</linearGradient>
<linearGradient id="paint3_linear_2057_33269" x1="-0.0117964" y1="10.3278" x2="3.42895" y2="8.12367" gradientUnits="userSpaceOnUse">
<stop stop-color="#336B43"/>
<stop offset="0.915024" stop-color="#59A658"/>
</linearGradient>
<linearGradient id="paint4_linear_2057_33269" x1="5.79498" y1="7.35693" x2="9.7286" y2="-3.85843" gradientUnits="userSpaceOnUse">
<stop stop-color="#64B885"/>
<stop offset="1" stop-color="#8FDFAF"/>
</linearGradient>
<linearGradient id="paint5_linear_2057_33269" x1="24.1342" y1="9.60054" x2="20.2678" y2="12.1466" gradientUnits="userSpaceOnUse">
<stop offset="0.312295" stop-color="#53AE93"/>
<stop offset="0.834928" stop-color="#1D561C"/>
</linearGradient>
<linearGradient id="paint6_linear_2057_33269" x1="28.1349" y1="5.48608" x2="18.8606" y2="15.1855" gradientUnits="userSpaceOnUse">
<stop offset="0.312295" stop-color="#53AE93"/>
<stop offset="0.834928" stop-color="#1D561C"/>
</linearGradient>
<linearGradient id="paint7_linear_2057_33269" x1="23.8078" y1="8.06027" x2="22.2154" y2="17.3754" gradientUnits="userSpaceOnUse">
<stop offset="0.312295" stop-color="#53AE93"/>
<stop offset="0.834928" stop-color="#1D561C"/>
</linearGradient>
<linearGradient id="paint8_linear_2057_33269" x1="0.292736" y1="14.9726" x2="3.53035" y2="13.2422" gradientUnits="userSpaceOnUse">
<stop stop-color="#336B43"/>
<stop offset="1" stop-color="#58A660"/>
</linearGradient>
<linearGradient id="paint9_linear_2057_33269" x1="6.03766" y1="16.7193" x2="9.96406" y2="5.51301" gradientUnits="userSpaceOnUse">
<stop stop-color="#64B885"/>
<stop offset="1" stop-color="#8FDFAF"/>
</linearGradient>
</defs>
</svg>
