<svg width="139" height="59" viewBox="0 0 139 59" fill="none" xmlns="http://www.w3.org/2000/svg">
<g filter="url(#filter0_b_2057_33248)">
<rect x="-51" width="190" height="59" rx="29.5" fill="url(#paint0_linear_2057_33248)"/>
<g clip-path="url(#clip0_2057_33248)">
<path d="M-9.58304 39.7223C-9.78884 39.7223 -9.94774 39.6575 -10.0599 39.5279C-10.1534 39.3797 -10.1815 39.2131 -10.1441 39.0279L-6.27294 20.9723C-6.23554 20.7686 -6.13264 20.6019 -5.96434 20.4723C-5.79604 20.3426 -5.61834 20.2778 -5.43134 20.2778H2.03046C4.10636 20.2778 5.77076 20.7038 7.02376 21.5556C8.29546 22.4075 8.93136 23.6389 8.93136 25.2501C8.93136 25.713 8.87526 26.1945 8.76306 26.6945C8.29546 28.8241 7.35106 30.3982 5.92976 31.4168C4.52716 32.4353 2.60086 32.9445 0.150962 32.9445H-3.63604L-4.92644 39.0279C-4.96384 39.2316 -5.06674 39.3982 -5.23504 39.5279C-5.40334 39.6575 -5.58094 39.7223 -5.76804 39.7223H-9.58304ZM0.347363 29.1112C1.13286 29.1112 1.81546 28.8982 2.39516 28.4723C2.99366 28.0464 3.38636 27.4352 3.57336 26.6389C3.62946 26.3241 3.65756 26.0464 3.65756 25.8056C3.65756 25.2686 3.49856 24.8612 3.18066 24.5834C2.86276 24.2871 2.32036 24.1389 1.55366 24.1389H-1.81264L-2.87864 29.1112H0.347363Z" fill="#FF0420"/>
<path d="M15.2517 39.7223C15.046 39.7223 14.887 39.6575 14.7748 39.5279C14.6626 39.3797 14.6252 39.2131 14.6626 39.0279L17.7764 24.6389H12.7831C12.5774 24.6389 12.4184 24.5741 12.3062 24.4445C12.2127 24.2964 12.1847 24.1297 12.2221 23.9445L12.8673 20.9723C12.9047 20.7686 13.0075 20.6019 13.1758 20.4723C13.3441 20.3426 13.5218 20.2778 13.7088 20.2778H28.8009C29.0066 20.2778 29.1655 20.3426 29.2778 20.4723C29.3526 20.5834 29.39 20.6945 29.39 20.8056C29.39 20.8612 29.3806 20.9167 29.3619 20.9723L28.7167 23.9445C28.6793 24.1482 28.5765 24.3149 28.4081 24.4445C28.2585 24.5741 28.0809 24.6389 27.8752 24.6389H22.9099L19.7961 39.0279C19.7587 39.2316 19.6559 39.3982 19.4876 39.5279C19.3192 39.6575 19.1416 39.7223 18.9546 39.7223H15.2517Z" fill="#FF0420"/>
<path d="M30.1056 39.7223C29.8999 39.7223 29.741 39.6575 29.6288 39.5279C29.5165 39.3797 29.4791 39.2131 29.5165 39.0279L33.4158 20.9723C33.4532 20.7686 33.5561 20.6019 33.7244 20.4723C33.8927 20.3426 34.0703 20.2778 34.2574 20.2778H38.0444C38.2501 20.2778 38.4091 20.3426 38.5213 20.4723C38.5961 20.5834 38.6335 20.6945 38.6335 20.8056C38.6335 20.8612 38.6241 20.9167 38.6054 20.9723L34.7342 39.0279C34.6968 39.2316 34.594 39.3982 34.4257 39.5279C34.2574 39.6575 34.0797 39.7223 33.8927 39.7223H30.1056Z" fill="#FF0420"/>
<path d="M40.7872 39.7223C40.5815 39.7223 40.4225 39.6575 40.3103 39.5279C40.1981 39.3982 40.1607 39.2316 40.1981 39.0279L44.0693 20.9723C44.1067 20.7686 44.2095 20.6019 44.3778 20.4723C44.5462 20.3426 44.7332 20.2778 44.9389 20.2778H47.9685C48.4174 20.2778 48.7072 20.4815 48.8381 20.8889L51.8958 29.6389L58.7125 20.8889C58.806 20.7408 58.9369 20.6019 59.1052 20.4723C59.2922 20.3426 59.5167 20.2778 59.7785 20.2778H62.8362C63.0419 20.2778 63.2008 20.3426 63.313 20.4723C63.3878 20.5834 63.4253 20.6945 63.4253 20.8056C63.4253 20.8612 63.4159 20.9167 63.3972 20.9723L59.526 39.0279C59.4886 39.2316 59.3857 39.3982 59.2174 39.5279C59.0491 39.6575 58.8715 39.7223 58.6844 39.7223H55.2901C55.0844 39.7223 54.9255 39.6575 54.8132 39.5279C54.7197 39.3797 54.6917 39.2131 54.7291 39.0279L56.9172 28.7778L52.6252 34.4168C52.4382 34.6205 52.2605 34.7779 52.0922 34.889C51.9239 35.0001 51.7275 35.0557 51.5031 35.0557H50.0444C49.6517 35.0557 49.3805 34.8427 49.2309 34.4168L47.2392 28.5278L44.995 39.0279C44.9576 39.2316 44.8547 39.3982 44.6864 39.5279C44.5181 39.6575 44.3404 39.7223 44.1534 39.7223H40.7872Z" fill="#FF0420"/>
<path d="M65.5484 39.7223C65.3426 39.7223 65.1837 39.6575 65.0715 39.5279C64.9593 39.3797 64.9219 39.2131 64.9593 39.0279L68.8585 20.9723C68.8959 20.7686 68.9988 20.6019 69.167 20.4723C69.335 20.3426 69.513 20.2778 69.7 20.2778H73.487C73.693 20.2778 73.852 20.3426 73.964 20.4723C74.039 20.5834 74.076 20.6945 74.076 20.8056C74.076 20.8612 74.067 20.9167 74.048 20.9723L70.177 39.0279C70.14 39.2316 70.037 39.3982 69.868 39.5279C69.7 39.6575 69.522 39.7223 69.335 39.7223H65.5484Z" fill="#FF0420"/>
<path d="M83.159 40C81.513 40 80.101 39.7778 78.923 39.3333C77.763 38.8889 76.884 38.2963 76.286 37.5556C75.706 36.8148 75.416 35.9907 75.416 35.0833C75.416 34.9352 75.435 34.713 75.472 34.4167C75.51 34.25 75.585 34.1111 75.697 34C75.828 33.8889 75.977 33.8333 76.146 33.8333H79.736C79.961 33.8333 80.129 33.8704 80.241 33.9444C80.372 34.0185 80.503 34.1481 80.634 34.3333C80.765 34.8148 81.064 35.213 81.532 35.5278C82.018 35.8426 82.682 36 83.523 36C84.589 36 85.45 35.8333 86.104 35.5C86.759 35.1667 87.152 34.713 87.282 34.1389C87.301 34.0648 87.31 33.9537 87.31 33.8056C87.31 33.3426 87.021 32.9815 86.441 32.7222C85.861 32.4444 84.795 32.1204 83.243 31.75C81.429 31.3611 80.054 30.7778 79.119 30C78.184 29.2037 77.717 28.1667 77.717 26.8889C77.717 26.4444 77.773 25.9907 77.885 25.5278C78.259 23.8056 79.185 22.4537 80.662 21.4722C82.158 20.4907 84.084 20 86.441 20C87.862 20 89.125 20.25 90.228 20.75C91.331 21.25 92.182 21.8889 92.781 22.6667C93.398 23.4259 93.706 24.1852 93.706 24.9444C93.706 25.1667 93.697 25.3241 93.678 25.4167C93.641 25.5833 93.557 25.7222 93.426 25.8333C93.314 25.9445 93.173 26 93.005 26H89.246C88.835 26 88.554 25.8426 88.405 25.5278C88.386 25.1019 88.161 24.7407 87.731 24.4444C87.301 24.1481 86.74 24 86.048 24C85.225 24 84.543 24.1481 84 24.4444C83.477 24.7407 83.149 25.1759 83.019 25.75C83 25.8426 82.99 25.963 82.99 26.1111C82.99 26.5556 83.252 26.9259 83.776 27.2222C84.318 27.5 85.263 27.787 86.609 28.0833C88.704 28.4907 90.228 29.0741 91.182 29.8333C92.154 30.5926 92.64 31.6019 92.64 32.8611C92.64 33.287 92.584 33.75 92.472 34.25C92.061 36.1389 91.06 37.5741 89.47 38.5556C87.9 39.5185 85.796 40 83.159 40Z" fill="#FF0420"/>
<path d="M96.3621 39.7223C96.1561 39.7223 95.9971 39.6575 95.8851 39.5279C95.7731 39.3982 95.7351 39.2316 95.7731 39.0279L99.6441 20.9723C99.6811 20.7686 99.7841 20.6019 99.9531 20.4723C100.121 20.3426 100.308 20.2778 100.514 20.2778H103.543C103.992 20.2778 104.282 20.4815 104.413 20.8889L107.471 29.6389L114.287 20.8889C114.381 20.7408 114.512 20.6019 114.68 20.4723C114.867 20.3426 115.091 20.2778 115.353 20.2778H118.411C118.617 20.2778 118.776 20.3426 118.888 20.4723C118.963 20.5834 119 20.6945 119 20.8056C119 20.8612 118.991 20.9167 118.972 20.9723L115.101 39.0279C115.063 39.2316 114.96 39.3982 114.792 39.5279C114.624 39.6575 114.446 39.7223 114.259 39.7223H110.865C110.659 39.7223 110.5 39.6575 110.388 39.5279C110.294 39.3797 110.266 39.2131 110.304 39.0279L112.492 28.7778L108.2 34.4168C108.013 34.6205 107.835 34.7779 107.667 34.889C107.499 35.0001 107.302 35.0557 107.078 35.0557H105.619C105.226 35.0557 104.955 34.8427 104.806 34.4168L102.814 28.5278L100.57 39.0279C100.532 39.2316 100.429 39.3982 100.261 39.5279C100.093 39.6575 99.9151 39.7223 99.7281 39.7223H96.3621Z" fill="#FF0420"/>
</g>
</g>
<defs>
<filter id="filter0_b_2057_33248" x="-132.548" y="-81.5485" width="353.097" height="222.097" filterUnits="userSpaceOnUse" color-interpolation-filters="sRGB">
<feFlood flood-opacity="0" result="BackgroundImageFix"/>
<feGaussianBlur in="BackgroundImageFix" stdDeviation="40.7742"/>
<feComposite in2="SourceAlpha" operator="in" result="effect1_backgroundBlur_2057_33248"/>
<feBlend mode="normal" in="SourceGraphic" in2="effect1_backgroundBlur_2057_33248" result="shape"/>
</filter>
<linearGradient id="paint0_linear_2057_33248" x1="77.0899" y1="-79.8164" x2="77.0899" y2="85.4051" gradientUnits="userSpaceOnUse">
<stop stop-color="white" stop-opacity="0"/>
<stop offset="0.864583" stop-color="white" stop-opacity="0.04"/>
<stop offset="1" stop-color="white" stop-opacity="0.08"/>
</linearGradient>
<clipPath id="clip0_2057_33248">
<rect width="150" height="20" fill="white" transform="translate(-31 20)"/>
</clipPath>
</defs>
</svg>
