<svg width="190" height="59" viewBox="0 0 190 59" fill="none" xmlns="http://www.w3.org/2000/svg">
<g filter="url(#filter0_b_2222_35683)">
<rect width="190" height="59" rx="29.5" fill="url(#paint0_linear_2222_35683)"/>
<g clip-path="url(#clip0_2222_35683)">
<path d="M27.5741 40C25.3486 40 23.5252 39.4815 22.1039 38.4444C20.7013 37.3889 20 35.8889 20 33.9444C20 33.537 20.0468 33.037 20.1403 32.4444C20.3834 31.1111 20.7294 29.5093 21.1782 27.6389C22.4499 22.5463 25.732 20 31.0245 20C32.4645 20 33.7549 20.2407 34.8957 20.7222C36.0365 21.1852 36.9341 21.8889 37.5887 22.8333C38.2432 23.7593 38.5705 24.8704 38.5705 26.1667C38.5705 26.5556 38.5238 27.0463 38.4303 27.6389C38.1497 29.287 37.8131 30.8889 37.4204 32.4444C36.7658 34.9815 35.6344 36.8796 34.0261 38.1389C32.4177 39.3796 30.2671 40 27.5741 40ZM27.9668 36C29.0141 36 29.9024 35.6944 30.6318 35.0833C31.3798 34.4722 31.9128 33.537 32.2307 32.2778C32.6609 30.537 32.9881 29.0185 33.2126 27.7222C33.2874 27.3333 33.3248 26.9352 33.3248 26.5278C33.3248 24.8426 32.4364 24 30.6598 24C29.6125 24 28.7149 24.3056 27.9668 24.9167C27.2375 25.5278 26.7138 26.463 26.3959 27.7222C26.0593 28.963 25.7226 30.4815 25.386 32.2778C25.3112 32.6481 25.2738 33.037 25.2738 33.4444C25.2738 35.1481 26.1715 36 27.9668 36Z" fill="#FF0420"/>
<path d="M41.417 39.7223C41.2112 39.7223 41.0523 39.6575 40.9401 39.5279C40.8466 39.3797 40.8185 39.2131 40.8559 39.0279L44.7271 20.9723C44.7645 20.7686 44.8674 20.6019 45.0357 20.4723C45.204 20.3426 45.3817 20.2778 45.5687 20.2778H53.0305C55.1064 20.2778 56.7708 20.7038 58.0238 21.5556C59.2955 22.4075 59.9314 23.6389 59.9314 25.2501C59.9314 25.713 59.8753 26.1945 59.7631 26.6945C59.2955 28.8241 58.3511 30.3982 56.9298 31.4168C55.5272 32.4353 53.6009 32.9445 51.151 32.9445H47.364L46.0736 39.0279C46.0362 39.2316 45.9333 39.3982 45.765 39.5279C45.5967 39.6575 45.4191 39.7223 45.232 39.7223H41.417ZM51.3474 29.1112C52.1329 29.1112 52.8155 28.8982 53.3952 28.4723C53.9937 28.0464 54.3864 27.4352 54.5734 26.6389C54.6295 26.3241 54.6576 26.0464 54.6576 25.8056C54.6576 25.2686 54.4986 24.8612 54.1807 24.5834C53.8628 24.2871 53.3204 24.1389 52.5537 24.1389H49.1874L48.1214 29.1112H51.3474Z" fill="#FF0420"/>
<path d="M66.2517 39.7223C66.046 39.7223 65.887 39.6575 65.7748 39.5279C65.6626 39.3797 65.6252 39.2131 65.6626 39.0279L68.7764 24.6389H63.7831C63.5774 24.6389 63.4184 24.5741 63.3062 24.4445C63.2127 24.2964 63.1847 24.1297 63.2221 23.9445L63.8673 20.9723C63.9047 20.7686 64.0075 20.6019 64.1758 20.4723C64.3441 20.3426 64.5218 20.2778 64.7088 20.2778H79.8009C80.0066 20.2778 80.1655 20.3426 80.2778 20.4723C80.3526 20.5834 80.39 20.6945 80.39 20.8056C80.39 20.8612 80.3806 20.9167 80.3619 20.9723L79.7167 23.9445C79.6793 24.1482 79.5765 24.3149 79.4081 24.4445C79.2585 24.5741 79.0809 24.6389 78.8752 24.6389H73.9099L70.7961 39.0279C70.7587 39.2316 70.6559 39.3982 70.4876 39.5279C70.3192 39.6575 70.1416 39.7223 69.9546 39.7223H66.2517Z" fill="#FF0420"/>
<path d="M81.1056 39.7223C80.8999 39.7223 80.741 39.6575 80.6288 39.5279C80.5165 39.3797 80.4791 39.2131 80.5165 39.0279L84.4158 20.9723C84.4532 20.7686 84.5561 20.6019 84.7244 20.4723C84.8927 20.3426 85.0703 20.2778 85.2574 20.2778H89.0444C89.2501 20.2778 89.4091 20.3426 89.5213 20.4723C89.5961 20.5834 89.6335 20.6945 89.6335 20.8056C89.6335 20.8612 89.6241 20.9167 89.6054 20.9723L85.7342 39.0279C85.6968 39.2316 85.594 39.3982 85.4257 39.5279C85.2574 39.6575 85.0797 39.7223 84.8927 39.7223H81.1056Z" fill="#FF0420"/>
<path d="M91.7872 39.7223C91.5815 39.7223 91.4225 39.6575 91.3103 39.5279C91.1981 39.3982 91.1607 39.2316 91.1981 39.0279L95.0693 20.9723C95.1067 20.7686 95.2095 20.6019 95.3778 20.4723C95.5462 20.3426 95.7332 20.2778 95.9389 20.2778H98.9685C99.4174 20.2778 99.7072 20.4815 99.8381 20.8889L102.896 29.6389L109.713 20.8889C109.806 20.7408 109.937 20.6019 110.105 20.4723C110.292 20.3426 110.517 20.2778 110.779 20.2778H113.836C114.042 20.2778 114.201 20.3426 114.313 20.4723C114.388 20.5834 114.425 20.6945 114.425 20.8056C114.425 20.8612 114.416 20.9167 114.397 20.9723L110.526 39.0279C110.489 39.2316 110.386 39.3982 110.217 39.5279C110.049 39.6575 109.872 39.7223 109.684 39.7223H106.29C106.084 39.7223 105.926 39.6575 105.813 39.5279C105.72 39.3797 105.692 39.2131 105.729 39.0279L107.917 28.7778L103.625 34.4168C103.438 34.6205 103.261 34.7779 103.092 34.889C102.924 35.0001 102.728 35.0557 102.503 35.0557H101.044C100.652 35.0557 100.381 34.8427 100.231 34.4168L98.2392 28.5278L95.995 39.0279C95.9576 39.2316 95.8547 39.3982 95.6864 39.5279C95.5181 39.6575 95.3404 39.7223 95.1534 39.7223H91.7872Z" fill="#FF0420"/>
<path d="M116.548 39.7223C116.343 39.7223 116.184 39.6575 116.072 39.5279C115.959 39.3797 115.922 39.2131 115.959 39.0279L119.859 20.9723C119.896 20.7686 119.999 20.6019 120.167 20.4723C120.335 20.3426 120.513 20.2778 120.7 20.2778H124.487C124.693 20.2778 124.852 20.3426 124.964 20.4723C125.039 20.5834 125.076 20.6945 125.076 20.8056C125.076 20.8612 125.067 20.9167 125.048 20.9723L121.177 39.0279C121.14 39.2316 121.037 39.3982 120.868 39.5279C120.7 39.6575 120.522 39.7223 120.335 39.7223H116.548Z" fill="#FF0420"/>
<path d="M134.159 40C132.513 40 131.101 39.7778 129.923 39.3333C128.763 38.8889 127.884 38.2963 127.286 37.5556C126.706 36.8148 126.416 35.9907 126.416 35.0833C126.416 34.9352 126.435 34.713 126.472 34.4167C126.51 34.25 126.585 34.1111 126.697 34C126.828 33.8889 126.977 33.8333 127.146 33.8333H130.736C130.961 33.8333 131.129 33.8704 131.241 33.9444C131.372 34.0185 131.503 34.1481 131.634 34.3333C131.765 34.8148 132.064 35.213 132.532 35.5278C133.018 35.8426 133.682 36 134.523 36C135.589 36 136.45 35.8333 137.104 35.5C137.759 35.1667 138.152 34.713 138.282 34.1389C138.301 34.0648 138.31 33.9537 138.31 33.8056C138.31 33.3426 138.021 32.9815 137.441 32.7222C136.861 32.4444 135.795 32.1204 134.243 31.75C132.429 31.3611 131.054 30.7778 130.119 30C129.184 29.2037 128.717 28.1667 128.717 26.8889C128.717 26.4444 128.773 25.9907 128.885 25.5278C129.259 23.8056 130.185 22.4537 131.662 21.4722C133.158 20.4907 135.084 20 137.441 20C138.862 20 140.125 20.25 141.228 20.75C142.331 21.25 143.182 21.8889 143.781 22.6667C144.398 23.4259 144.706 24.1852 144.706 24.9444C144.706 25.1667 144.697 25.3241 144.678 25.4167C144.641 25.5833 144.557 25.7222 144.426 25.8333C144.314 25.9445 144.173 26 144.005 26H140.246C139.835 26 139.554 25.8426 139.405 25.5278C139.386 25.1019 139.161 24.7407 138.731 24.4444C138.301 24.1481 137.74 24 137.048 24C136.225 24 135.543 24.1481 135 24.4444C134.477 24.7407 134.149 25.1759 134.019 25.75C134 25.8426 133.99 25.963 133.99 26.1111C133.99 26.5556 134.252 26.9259 134.776 27.2222C135.318 27.5 136.263 27.787 137.609 28.0833C139.704 28.4907 141.228 29.0741 142.182 29.8333C143.154 30.5926 143.64 31.6019 143.64 32.8611C143.64 33.287 143.584 33.75 143.472 34.25C143.061 36.1389 142.06 37.5741 140.47 38.5556C138.9 39.5185 136.796 40 134.159 40Z" fill="#FF0420"/>
<path d="M147.362 39.7223C147.156 39.7223 146.997 39.6575 146.885 39.5279C146.773 39.3982 146.735 39.2316 146.773 39.0279L150.644 20.9723C150.681 20.7686 150.784 20.6019 150.953 20.4723C151.121 20.3426 151.308 20.2778 151.514 20.2778H154.543C154.992 20.2778 155.282 20.4815 155.413 20.8889L158.471 29.6389L165.287 20.8889C165.381 20.7408 165.512 20.6019 165.68 20.4723C165.867 20.3426 166.091 20.2778 166.353 20.2778H169.411C169.617 20.2778 169.776 20.3426 169.888 20.4723C169.963 20.5834 170 20.6945 170 20.8056C170 20.8612 169.991 20.9167 169.972 20.9723L166.101 39.0279C166.063 39.2316 165.96 39.3982 165.792 39.5279C165.624 39.6575 165.446 39.7223 165.259 39.7223H161.865C161.659 39.7223 161.5 39.6575 161.388 39.5279C161.294 39.3797 161.266 39.2131 161.304 39.0279L163.492 28.7778L159.2 34.4168C159.013 34.6205 158.835 34.7779 158.667 34.889C158.499 35.0001 158.302 35.0557 158.078 35.0557H156.619C156.226 35.0557 155.955 34.8427 155.806 34.4168L153.814 28.5278L151.57 39.0279C151.532 39.2316 151.429 39.3982 151.261 39.5279C151.093 39.6575 150.915 39.7223 150.728 39.7223H147.362Z" fill="#FF0420"/>
</g>
</g>
<defs>
<filter id="filter0_b_2222_35683" x="-81.5485" y="-81.5485" width="353.097" height="222.097" filterUnits="userSpaceOnUse" color-interpolation-filters="sRGB">
<feFlood flood-opacity="0" result="BackgroundImageFix"/>
<feGaussianBlur in="BackgroundImageFix" stdDeviation="40.7742"/>
<feComposite in2="SourceAlpha" operator="in" result="effect1_backgroundBlur_2222_35683"/>
<feBlend mode="normal" in="SourceGraphic" in2="effect1_backgroundBlur_2222_35683" result="shape"/>
</filter>
<linearGradient id="paint0_linear_2222_35683" x1="128.09" y1="-79.8164" x2="128.09" y2="85.4051" gradientUnits="userSpaceOnUse">
<stop stop-color="white" stop-opacity="0"/>
<stop offset="0.864583" stop-color="white" stop-opacity="0.04"/>
<stop offset="1" stop-color="white" stop-opacity="0.08"/>
</linearGradient>
<clipPath id="clip0_2222_35683">
<rect width="150" height="20" fill="white" transform="translate(20 20)"/>
</clipPath>
</defs>
</svg>
