<svg width="136" height="59" viewBox="0 0 136 59" fill="none" xmlns="http://www.w3.org/2000/svg">
<g filter="url(#filter0_b_2057_33204)">
<g clip-path="url(#clip0_2057_33204)">
<rect width="164" height="59" rx="29.5" fill="url(#paint0_linear_2057_33204)"/>
<g clip-path="url(#clip1_2057_33204)">
<path d="M79.0252 26.6334C79.6058 26.9848 80.097 27.468 80.4097 28.127C80.767 28.7859 80.9456 29.5766 80.9456 30.4551C80.9456 31.3337 80.767 32.0805 80.365 32.7394C80.0077 33.3983 79.4718 33.8815 78.8018 34.189C78.1319 34.5405 77.328 34.7162 76.4794 34.7162C75.9881 34.7162 75.5415 34.6283 75.0949 34.4526C74.6553 34.315 74.2566 34.0737 73.9337 33.7498V38.3183H71.3433V26.282H73.5764L73.7997 27.2484C74.7822 26.4577 75.8541 26.0623 76.9707 26.0623C77.6987 26.0423 78.4155 26.2416 79.0252 26.6334ZM77.596 32.0805C78.0426 31.6851 78.2659 31.158 78.2659 30.4991C78.2786 29.8982 78.0545 29.3158 77.6406 28.8737C77.4478 28.6693 77.2121 28.5085 76.95 28.4023C76.6878 28.2962 76.4054 28.2472 76.1221 28.2587C75.6308 28.2587 75.1842 28.3466 74.8269 28.5662C74.4696 28.742 74.2016 29.0494 73.9783 29.4448V31.4216C74.1123 31.8169 74.3803 32.1244 74.6929 32.3441C75.0502 32.5637 75.4522 32.6955 75.9435 32.6955C76.6134 32.6955 77.1493 32.4758 77.596 32.0805ZM82.4641 28.1709C82.8661 27.5559 83.4021 27.0288 84.1166 26.6773C84.8312 26.3259 85.6352 26.1063 86.5284 26.1063C87.4216 26.1063 88.2256 26.282 88.9402 26.6773C89.6101 27.0288 90.146 27.5559 90.548 28.2148C90.95 28.8737 91.1286 29.5766 91.1286 30.4112C91.1286 31.2459 90.95 31.9487 90.548 32.6076C90.146 33.2665 89.6548 33.7937 88.9402 34.1451C88.2702 34.4965 87.4216 34.7162 86.5284 34.7162C85.6352 34.7162 84.8312 34.5405 84.1166 34.189C83.4284 33.8619 82.8536 33.3424 82.4641 32.6955C82.0818 32.0007 81.8816 31.2232 81.8816 30.4332C81.8816 29.6432 82.0818 28.8657 82.4641 28.1709ZM85.0992 31.9926C85.4565 32.4319 85.9478 32.6076 86.5284 32.6076C87.109 32.6076 87.6003 32.388 87.9576 31.9926C88.3249 31.5466 88.5153 30.9848 88.4935 30.4112C88.4935 29.7523 88.3149 29.2252 87.9576 28.8298C87.779 28.617 87.5535 28.447 87.2981 28.3328C87.0427 28.2186 86.7642 28.1632 86.4837 28.1709C85.9031 28.1709 85.4565 28.3905 85.0546 28.7859C84.6973 29.2252 84.5186 29.7523 84.5186 30.4112C84.5186 31.0262 84.6973 31.5534 85.0992 31.9926ZM95.3268 20.0442V34.4965H92.7364V20.0442H95.3268ZM105.956 26.5016L100.686 38.3622H98.1852L100.15 34.1012L96.3987 26.5016H99.3464L101.49 31.2459L103.634 26.5016H105.956ZM115.871 26.5016V34.4965C115.871 35.2433 115.648 35.9462 115.202 36.5612C114.755 37.1761 114.174 37.6594 113.415 38.0108C112.656 38.3622 111.852 38.5379 110.959 38.5379C110.289 38.5379 109.708 38.4501 109.217 38.3183C108.726 38.1426 108.324 37.9669 108.011 37.7911C107.615 37.5447 107.242 37.2655 106.894 36.9565L108.413 35.1994C108.77 35.5508 109.172 35.8144 109.529 35.9901C109.887 36.1658 110.378 36.2976 110.914 36.2976C111.584 36.2976 112.12 36.1219 112.566 35.8144C113.013 35.5069 113.236 35.0237 113.236 34.4526V33.3105C112.968 33.7058 112.611 34.0573 112.075 34.3208C111.539 34.5844 110.914 34.7162 110.199 34.7162C109.485 34.7162 108.77 34.5405 108.145 34.1451C107.512 33.7709 106.988 33.241 106.626 32.6076C106.269 31.9487 106.046 31.2459 106.046 30.4551C106.046 29.6644 106.224 28.9177 106.626 28.2587C107.028 27.5998 107.52 27.0727 108.19 26.6773C108.815 26.282 109.485 26.1063 110.199 26.1063C110.869 26.1063 111.45 26.1941 111.986 26.3698C112.522 26.5455 112.924 26.8091 113.192 27.1166L113.46 26.5016H115.871ZM113.236 31.4216V29.4448C113.068 29.0519 112.768 28.7267 112.388 28.5223C111.966 28.288 111.488 28.1668 111.003 28.1709C110.378 28.1709 109.842 28.3905 109.395 28.7859C109.173 28.9851 108.997 29.23 108.882 29.5033C108.766 29.7766 108.713 30.0715 108.726 30.3673C108.722 30.6645 108.778 30.9596 108.891 31.2354C109.003 31.5112 109.17 31.7625 109.382 31.9747C109.594 32.187 109.846 32.356 110.124 32.4721C110.402 32.5883 110.701 32.6493 111.003 32.6516C112.031 32.6076 112.79 32.2123 113.236 31.4216ZM118.015 28.1709C118.415 27.5214 118.986 26.9902 119.668 26.6334C120.382 26.282 121.186 26.0623 122.08 26.0623C122.973 26.0623 123.777 26.2381 124.491 26.6334C125.161 26.9848 125.697 27.512 126.099 28.1709C126.456 28.8298 126.68 29.5327 126.68 30.3673C126.68 31.2019 126.501 31.9048 126.099 32.5637C125.742 33.2226 125.206 33.7498 124.491 34.1012C123.821 34.4526 122.973 34.6722 122.08 34.6722C121.186 34.6722 120.382 34.4965 119.668 34.1451C118.98 33.818 118.405 33.2984 118.015 32.6516C117.604 31.9441 117.403 31.1375 117.435 30.3234C117.435 29.5766 117.613 28.8298 118.015 28.1709ZM120.606 31.9926C120.963 32.4319 121.454 32.6076 122.035 32.6076C122.615 32.6076 123.107 32.388 123.464 31.9926C123.831 31.5466 124.022 30.9848 124 30.4112C124 29.7523 123.821 29.2252 123.464 28.8298C123.285 28.6315 123.065 28.4738 122.818 28.3676C122.571 28.2614 122.304 28.2093 122.035 28.2148C121.454 28.2148 121.008 28.4345 120.606 28.8298C120.204 29.2252 120.025 29.7962 120.025 30.4112C120.07 31.0262 120.248 31.5534 120.606 31.9926ZM135.835 26.7652C136.371 27.2045 136.595 27.7755 136.639 28.4784V34.4965H134.004V29.4448C133.96 28.6541 133.558 28.2587 132.798 28.2587C132.218 28.2587 131.727 28.5223 131.369 29.0934C130.994 29.7332 130.808 30.4636 130.833 31.2019V34.4965H128.243V26.5016H130.61L130.789 27.7755C131.099 27.2373 131.556 26.7955 132.109 26.5004C132.661 26.2052 133.287 26.0687 133.915 26.1063C134.674 26.1063 135.344 26.3259 135.835 26.7652Z" fill="white"/>
</g>
<path opacity="0.2" d="M30 54C43.2548 54 54 43.2548 54 30C54 16.7452 43.2548 6 30 6C16.7452 6 6 16.7452 6 30C6 43.2548 16.7452 54 30 54Z" fill="#7310C1"/>
<path d="M36.1107 26.4154C35.6678 26.1491 35.0922 26.1491 34.6052 26.4154L31.1513 28.4577L28.8044 29.7897L25.3505 31.8319C24.9077 32.0983 24.3321 32.0983 23.845 31.8319L21.0996 30.2336C20.6568 29.9672 20.3469 29.4789 20.3469 28.9461V25.7939C20.3469 25.2611 20.6125 24.7727 21.0996 24.5063L23.8007 22.9524C24.2435 22.6861 24.8192 22.6861 25.3063 22.9524L28.0074 24.5063C28.4502 24.7727 28.7601 25.2611 28.7601 25.7939V27.8362L31.107 26.4598V24.4176C31.107 23.8848 30.8414 23.3964 30.3542 23.13L25.3505 20.1998C24.9077 19.9334 24.3321 19.9334 23.845 20.1998L18.7528 23.13C18.2657 23.3964 18 23.8848 18 24.4176V30.3224C18 30.8552 18.2657 31.3436 18.7528 31.61L23.845 34.5402C24.2878 34.8066 24.8635 34.8066 25.3505 34.5402L28.8044 32.5423L31.1513 31.166L34.6052 29.1681C35.048 28.9017 35.6236 28.9017 36.1107 29.1681L38.8118 30.722C39.2545 30.9884 39.5645 31.4768 39.5645 32.0095V35.1617C39.5645 35.6946 39.2989 36.1829 38.8118 36.4493L36.1107 38.0476C35.6678 38.314 35.0922 38.314 34.6052 38.0476L31.9041 36.4937C31.4612 36.2273 31.1513 35.7389 31.1513 35.2061V33.1639L28.8044 34.5402V36.5824C28.8044 37.1152 29.0701 37.6036 29.5571 37.87L34.6494 40.8002C35.0922 41.0666 35.6678 41.0666 36.1549 40.8002L41.2472 37.87C41.69 37.6036 42 37.1152 42 36.5824V30.6776C42 30.1448 41.7343 29.6565 41.2472 29.3901L36.1107 26.4154Z" fill="#8247E5"/>
<path d="M48 0L172 0L172 59L48 59L48 0Z" fill="url(#paint1_linear_2057_33204)"/>
</g>
</g>
<defs>
<filter id="filter0_b_2057_33204" x="-81.5485" y="-81.5485" width="327.097" height="222.097" filterUnits="userSpaceOnUse" color-interpolation-filters="sRGB">
<feFlood flood-opacity="0" result="BackgroundImageFix"/>
<feGaussianBlur in="BackgroundImageFix" stdDeviation="40.7742"/>
<feComposite in2="SourceAlpha" operator="in" result="effect1_backgroundBlur_2057_33204"/>
<feBlend mode="normal" in="SourceGraphic" in2="effect1_backgroundBlur_2057_33204" result="shape"/>
</filter>
<linearGradient id="paint0_linear_2057_33204" x1="110.562" y1="-79.8164" x2="110.562" y2="85.4051" gradientUnits="userSpaceOnUse">
<stop stop-color="white" stop-opacity="0"/>
<stop offset="0.864583" stop-color="white" stop-opacity="0.04"/>
<stop offset="1" stop-color="white" stop-opacity="0.08"/>
</linearGradient>
<linearGradient id="paint1_linear_2057_33204" x1="172" y1="1.75212" x2="67.1905" y2="1.75212" gradientUnits="userSpaceOnUse">
<stop stop-color="#00010A"/>
<stop offset="1" stop-color="#121619" stop-opacity="0"/>
</linearGradient>
<clipPath id="clip0_2057_33204">
<rect width="164" height="59" rx="29.5" fill="white"/>
</clipPath>
<clipPath id="clip1_2057_33204">
<rect width="94.6392" height="20.8219" fill="white" transform="translate(42 20)"/>
</clipPath>
</defs>
</svg>
