<svg width="191" height="59" viewBox="0 0 191 59" fill="none" xmlns="http://www.w3.org/2000/svg">
<g filter="url(#filter0_b_2057_33193)">
<rect width="191" height="59" rx="29.5" fill="url(#paint0_linear_2057_33193)"/>
<circle cx="31" cy="30" r="24" fill="#151515"/>
<path fill-rule="evenodd" clip-rule="evenodd" d="M25.8684 33.4606C25.9218 33.4028 25.9863 33.3564 26.058 33.3241C26.1297 33.2918 26.2073 33.2743 26.2859 33.2727H39.404C39.4595 33.2735 39.5136 33.2903 39.5598 33.3211C39.6059 33.3519 39.6423 33.3954 39.6643 33.4463C39.6864 33.4973 39.6933 33.5535 39.6841 33.6082C39.675 33.663 39.6502 33.7139 39.6128 33.7549L36.8322 36.8424C36.7788 36.9002 36.7143 36.9467 36.6426 36.9789C36.5708 37.0112 36.4933 37.0287 36.4147 37.0303H23.2882C23.2327 37.0295 23.1786 37.0127 23.1324 36.9819C23.0862 36.9511 23.0499 36.9076 23.0279 36.8567C23.0058 36.8058 22.999 36.7495 23.0081 36.6948C23.0173 36.64 23.042 36.5891 23.0794 36.5481L25.8684 33.4606ZM39.6254 30.9013C39.6628 30.9423 39.6875 30.9932 39.6966 31.048C39.7058 31.1027 39.6989 31.1589 39.6769 31.2099C39.6548 31.2608 39.6185 31.3043 39.5723 31.3351C39.5261 31.3659 39.4721 31.3827 39.4165 31.3835L26.2943 31.3939C26.2156 31.3923 26.1381 31.3749 26.0663 31.3426C25.9946 31.3103 25.9301 31.2639 25.8768 31.2061L23.0753 28.129C23.0379 28.088 23.0131 28.0371 23.0039 27.9823C22.9948 27.9276 23.0017 27.8714 23.0237 27.8204C23.0458 27.7695 23.0821 27.726 23.1282 27.6952C23.1744 27.6644 23.2285 27.6476 23.284 27.6468L36.4063 27.6364C36.485 27.638 36.5625 27.6554 36.6342 27.6877C36.706 27.72 36.7705 27.7664 36.8238 27.8242L39.6254 30.9013ZM25.8684 22.1879C25.9218 22.1301 25.9863 22.0836 26.058 22.0514C26.1297 22.0191 26.2073 22.0016 26.2859 22L39.4124 22.0104C39.4678 22.0112 39.522 22.028 39.5682 22.0588C39.6144 22.0896 39.6507 22.1331 39.6726 22.184C39.6947 22.235 39.7016 22.2912 39.6925 22.346C39.6833 22.4007 39.6585 22.4517 39.6211 22.4927L36.8322 25.5697C36.7788 25.6275 36.7143 25.6739 36.6426 25.7062C36.5708 25.7385 36.4933 25.756 36.4147 25.7576H23.2882C23.2327 25.7568 23.1786 25.74 23.1324 25.7092C23.0862 25.6784 23.0499 25.6349 23.0279 25.584C23.0058 25.533 22.999 25.4768 23.0081 25.4221C23.0173 25.3673 23.042 25.3164 23.0794 25.2754L25.8684 22.1879Z" fill="url(#paint1_linear_2057_33193)"/>
<g clip-path="url(#clip0_2057_33193)">
<path d="M81.5631 28.0121H72.5241V25.0061H83.9033V22H72.5033C71.7116 22 70.9522 22.3145 70.3923 22.8743C69.8326 23.4342 69.5181 24.1935 69.5181 24.9852V28.033C69.5181 28.8247 69.8326 29.584 70.3923 30.1438C70.9522 30.7037 71.7116 31.0182 72.5033 31.0182H81.5423V34.0242H69.733V37.0303H81.5631C82.3549 37.0303 83.1142 36.7158 83.6739 36.156C84.2338 35.5961 84.5484 34.8368 84.5484 34.0451V30.9973C84.5484 30.2056 84.2338 29.4463 83.6739 28.8865C83.1142 28.3266 82.3549 28.0121 81.5631 28.0121Z" fill="white"/>
<path d="M99.0673 22H89.9949C89.6029 22 89.2149 22.0772 88.8528 22.2273C88.4908 22.3773 88.1618 22.5972 87.8847 22.8745C87.6078 23.1517 87.3881 23.4808 87.2383 23.843C87.0884 24.2051 87.0116 24.5933 87.0117 24.9852V34.0451C87.0116 34.437 87.0884 34.8252 87.2383 35.1873C87.3881 35.5495 87.6078 35.8786 87.8847 36.1558C88.1618 36.4331 88.4908 36.653 88.8528 36.803C89.2149 36.9531 89.6029 37.0303 89.9949 37.0303H99.0673C99.859 37.0303 100.618 36.7158 101.178 36.156C101.738 35.5961 102.053 34.8368 102.053 34.0451V24.9852C102.053 24.1935 101.738 23.4342 101.178 22.8743C100.618 22.3145 99.859 22 99.0673 22ZM99.0465 34.0242H90.0283V25.0061H99.0465V34.0242Z" fill="white"/>
<path d="M130.818 22H121.972C121.18 22 120.42 22.3145 119.861 22.8743C119.301 23.4342 118.986 24.1935 118.986 24.9852V37.0303H121.992V32.0912H130.798V37.0303H133.804V24.9852C133.804 24.5931 133.727 24.2048 133.577 23.8425C133.427 23.4802 133.207 23.151 132.93 22.8737C132.653 22.5965 132.324 22.3766 131.961 22.2267C131.599 22.0768 131.211 21.9997 130.818 22ZM130.798 29.0851H121.992V25.0061H130.798V29.0851Z" fill="white"/>
<path d="M166.015 22H157.17C156.777 21.9992 156.388 22.0758 156.025 22.2254C155.662 22.3751 155.333 22.5948 155.055 22.8721C154.777 23.1494 154.556 23.4788 154.406 23.8414C154.256 24.2039 154.178 24.5926 154.178 24.9852V37.0303H157.184V32.0912H165.994V37.0303H169V24.9852C169 24.1935 168.685 23.4342 168.126 22.8743C167.566 22.3145 166.806 22 166.015 22ZM165.994 29.0851H157.191V25.0061H165.994V29.0851Z" fill="white"/>
<path d="M148.502 34.0242H147.3L142.991 23.2525C142.844 22.8829 142.589 22.566 142.26 22.3428C141.93 22.1195 141.542 22.0001 141.144 22H138.468C137.94 22 137.434 22.2096 137.061 22.5827C136.688 22.9558 136.478 23.4618 136.478 23.9894V37.0303H139.484V25.0061H140.687L144.993 35.7778C145.14 36.1474 145.394 36.4643 145.723 36.6877C146.052 36.911 146.441 37.0304 146.838 37.0303H149.515C150.042 37.0303 150.548 36.8207 150.922 36.4476C151.295 36.0745 151.504 35.5685 151.504 35.0409V22H148.498L148.502 34.0242Z" fill="white"/>
<path d="M107.722 22H104.716V34.0451C104.716 34.8368 105.03 35.5961 105.59 36.156C106.15 36.7158 106.909 37.0303 107.701 37.0303H116.74V34.0242H107.722V22Z" fill="white"/>
</g>
</g>
<defs>
<filter id="filter0_b_2057_33193" x="-81.5485" y="-81.5485" width="354.097" height="222.097" filterUnits="userSpaceOnUse" color-interpolation-filters="sRGB">
<feFlood flood-opacity="0" result="BackgroundImageFix"/>
<feGaussianBlur in="BackgroundImageFix" stdDeviation="40.7742"/>
<feComposite in2="SourceAlpha" operator="in" result="effect1_backgroundBlur_2057_33193"/>
<feBlend mode="normal" in="SourceGraphic" in2="effect1_backgroundBlur_2057_33193" result="shape"/>
</filter>
<linearGradient id="paint0_linear_2057_33193" x1="128.764" y1="-79.8164" x2="128.764" y2="85.4051" gradientUnits="userSpaceOnUse">
<stop stop-color="white" stop-opacity="0"/>
<stop offset="0.864583" stop-color="white" stop-opacity="0.04"/>
<stop offset="1" stop-color="white" stop-opacity="0.08"/>
</linearGradient>
<linearGradient id="paint1_linear_2057_33193" x1="23.5074" y1="37.358" x2="39.1932" y2="21.6723" gradientUnits="userSpaceOnUse">
<stop stop-color="#9945FF"/>
<stop offset="0.14" stop-color="#8A53F4"/>
<stop offset="0.42" stop-color="#6377D6"/>
<stop offset="0.79" stop-color="#24B0A7"/>
<stop offset="0.99" stop-color="#00D18C"/>
<stop offset="1" stop-color="#00D18C"/>
</linearGradient>
<clipPath id="clip0_2057_33193">
<rect width="124" height="15.0303" fill="white" transform="translate(45 22)"/>
</clipPath>
</defs>
</svg>
