<svg width="88" height="89" viewBox="0 0 88 89" fill="none" xmlns="http://www.w3.org/2000/svg">
<path d="M58.2307 41.4349L49.1086 38.1147L54.2788 23.9096L31.927 41.0085L41.6076 44.532L33.6556 62.0354L58.2307 41.4349Z" fill="white"/>
<mask id="path-2-inside-1_2167_30304" fill="white">
<path d="M61.3407 4.26311C53.7623 1.0651 45.4342 0.0751789 37.3173 1.40759C29.2005 2.74 21.6258 6.34043 15.4676 11.7934C9.30933 17.2463 4.81849 24.3294 2.51338 32.2253C0.208259 40.1212 0.182819 48.5079 2.43999 56.4176L4.92884 55.7074C2.8056 48.2671 2.82953 40.378 4.99787 32.9506C7.1662 25.5233 11.3905 18.8604 17.1834 13.7311C22.9762 8.60174 30.1014 5.21495 37.7366 3.96161C45.3718 2.70826 53.2058 3.63944 60.3344 6.64769L61.3407 4.26311Z"/>
</mask>
<path d="M61.3407 4.26311C53.7623 1.0651 45.4342 0.0751789 37.3173 1.40759C29.2005 2.74 21.6258 6.34043 15.4676 11.7934C9.30933 17.2463 4.81849 24.3294 2.51338 32.2253C0.208259 40.1212 0.182819 48.5079 2.43999 56.4176L4.92884 55.7074C2.8056 48.2671 2.82953 40.378 4.99787 32.9506C7.1662 25.5233 11.3905 18.8604 17.1834 13.7311C22.9762 8.60174 30.1014 5.21495 37.7366 3.96161C45.3718 2.70826 53.2058 3.63944 60.3344 6.64769L61.3407 4.26311Z" stroke="#09E583" stroke-width="4.47354" mask="url(#path-2-inside-1_2167_30304)"/>
<path d="M43.8223 85.8281C66.9848 85.8281 85.7617 67.0512 85.7617 43.8887C85.7617 20.7262 66.9848 1.94922 43.8223 1.94922C20.6597 1.94922 1.88281 20.7262 1.88281 43.8887C1.88281 67.0512 20.6597 85.8281 43.8223 85.8281Z" fill="#09E583" fill-opacity="0.05" stroke="#09E583" stroke-opacity="0.2" stroke-width="2.79596"/>
</svg>
