<svg width="86" height="28" viewBox="0 0 86 28" fill="none" xmlns="http://www.w3.org/2000/svg">
<g clip-path="url(#clip0_2057_33183)">
<path d="M0 26.7539V22.5703L6.09961 4.14844H0.878906V0.298828H10.3008V4.14844L4.11328 22.9043H10.3008V26.7539H0Z" fill="white"/>
<path d="M15.7642 21.6387V21.3223V5.73047C15.7642 5.64844 15.7642 5.54297 15.7642 5.41406C15.7759 5.27344 15.811 5.00391 15.8696 4.60547C15.9399 4.20703 16.0337 3.82617 16.1509 3.46289C16.2681 3.09961 16.4556 2.70117 16.7134 2.26758C16.9712 1.82227 17.27 1.44141 17.6099 1.125C17.9614 0.808594 18.4243 0.544922 18.9985 0.333984C19.5728 0.111328 20.2173 0 20.9321 0C21.647 0 22.2915 0.105469 22.8657 0.316406C23.4399 0.527344 23.897 0.802734 24.2368 1.14258C24.5884 1.4707 24.8931 1.83984 25.1509 2.25C25.4204 2.66016 25.6138 3.07031 25.731 3.48047C25.8481 3.89062 25.936 4.26562 25.9946 4.60547C26.0649 4.93359 26.1001 5.20312 26.1001 5.41406L26.1177 5.73047V21.3223C26.1177 21.4043 26.1118 21.5156 26.1001 21.6562C26.1001 21.7852 26.0649 22.0488 25.9946 22.4473C25.936 22.8457 25.8481 23.2266 25.731 23.5898C25.6138 23.9414 25.4263 24.3398 25.1685 24.7852C24.9106 25.2188 24.606 25.5938 24.2544 25.9102C23.9028 26.2266 23.4399 26.4961 22.8657 26.7188C22.2915 26.9297 21.647 27.0352 20.9321 27.0352C20.2173 27.0352 19.5728 26.9297 18.9985 26.7188C18.4243 26.5078 17.9614 26.2383 17.6099 25.9102C17.27 25.5703 16.9712 25.1953 16.7134 24.7852C16.4556 24.375 16.2681 23.9707 16.1509 23.5723C16.0337 23.1621 15.9399 22.793 15.8696 22.4648C15.811 22.125 15.7759 21.8496 15.7642 21.6387ZM19.6489 21.3223C19.6489 21.3691 19.6489 21.4395 19.6489 21.5332C19.6489 21.6152 19.6665 21.7676 19.7017 21.9902C19.7485 22.2129 19.8071 22.4121 19.8774 22.5879C19.9595 22.752 20.0884 22.9043 20.2642 23.0449C20.4517 23.1855 20.6743 23.2559 20.9321 23.2559C21.1899 23.2559 21.4067 23.1914 21.5825 23.0625C21.77 22.9219 21.9048 22.7578 21.9868 22.5703C22.0689 22.3828 22.1274 22.1953 22.1626 22.0078C22.2095 21.8203 22.2329 21.6562 22.2329 21.5156V21.3223V5.73047C22.2329 5.67188 22.2329 5.60156 22.2329 5.51953C22.2329 5.4375 22.2095 5.28516 22.1626 5.0625C22.1274 4.82812 22.0689 4.62891 21.9868 4.46484C21.9048 4.28906 21.77 4.13086 21.5825 3.99023C21.4067 3.84961 21.1899 3.7793 20.9321 3.7793C20.522 3.7793 20.2114 3.94336 20.0005 4.27148C19.7896 4.58789 19.6782 4.91016 19.6665 5.23828L19.6489 5.73047V21.3223Z" fill="white"/>
<path d="M32.3369 26.7539V0.298828H36.2217V9.10547V10.2656H36.3623L36.5557 9.10547L39.79 0.298828H43.5693L40.001 9L44.044 26.7539H40.2471L37.5576 15.2402L37.4522 14.6953H37.3467L37.1182 15.2402L36.2217 17.4023V26.7539H32.3369Z" fill="white"/>
<path d="M48.7686 0.298828H52.5831L54.5343 8.75391L54.6397 9.7207H54.7101L54.8155 8.75391L56.7667 0.298828H60.5811L56.6261 15.4863V26.7539H52.7413V15.4863L48.7686 0.298828Z" fill="white"/>
<path d="M65.5171 21.6387V21.3223V5.73047C65.5171 5.64844 65.5171 5.54297 65.5171 5.41406C65.5288 5.27344 65.564 5.00391 65.6226 4.60547C65.6929 4.20703 65.7866 3.82617 65.9038 3.46289C66.021 3.09961 66.2085 2.70117 66.4663 2.26758C66.7241 1.82227 67.0229 1.44141 67.3628 1.125C67.7144 0.808594 68.1772 0.544922 68.7515 0.333984C69.3257 0.111328 69.9702 0 70.6851 0C71.3999 0 72.0444 0.105469 72.6187 0.316406C73.1929 0.527344 73.6499 0.802734 73.9897 1.14258C74.3413 1.4707 74.646 1.83984 74.9038 2.25C75.1733 2.66016 75.3667 3.07031 75.4839 3.48047C75.6011 3.89062 75.689 4.26562 75.7476 4.60547C75.8179 4.93359 75.853 5.20312 75.853 5.41406L75.8706 5.73047V21.3223C75.8706 21.4043 75.8647 21.5156 75.853 21.6562C75.853 21.7852 75.8179 22.0488 75.7476 22.4473C75.689 22.8457 75.6011 23.2266 75.4839 23.5898C75.3667 23.9414 75.1792 24.3398 74.9214 24.7852C74.6636 25.2188 74.3589 25.5938 74.0073 25.9102C73.6558 26.2266 73.1929 26.4961 72.6187 26.7188C72.0444 26.9297 71.3999 27.0352 70.6851 27.0352C69.9702 27.0352 69.3257 26.9297 68.7515 26.7188C68.1772 26.5078 67.7144 26.2383 67.3628 25.9102C67.0229 25.5703 66.7241 25.1953 66.4663 24.7852C66.2085 24.375 66.021 23.9707 65.9038 23.5723C65.7866 23.1621 65.6929 22.793 65.6226 22.4648C65.564 22.125 65.5288 21.8496 65.5171 21.6387ZM69.4019 21.3223C69.4019 21.3691 69.4019 21.4395 69.4019 21.5332C69.4019 21.6152 69.4194 21.7676 69.4546 21.9902C69.5015 22.2129 69.5601 22.4121 69.6304 22.5879C69.7124 22.752 69.8413 22.9043 70.0171 23.0449C70.2046 23.1855 70.4272 23.2559 70.6851 23.2559C70.9429 23.2559 71.1597 23.1914 71.3354 23.0625C71.5229 22.9219 71.6577 22.7578 71.7397 22.5703C71.8218 22.3828 71.8804 22.1953 71.9155 22.0078C71.9624 21.8203 71.9858 21.6562 71.9858 21.5156V21.3223V5.73047C71.9858 5.67188 71.9858 5.60156 71.9858 5.51953C71.9858 5.4375 71.9624 5.28516 71.9155 5.0625C71.8804 4.82812 71.8218 4.62891 71.7397 4.46484C71.6577 4.28906 71.5229 4.13086 71.3354 3.99023C71.1597 3.84961 70.9429 3.7793 70.6851 3.7793C70.2749 3.7793 69.9644 3.94336 69.7534 4.27148C69.5425 4.58789 69.4312 4.91016 69.4194 5.23828L69.4019 5.73047V21.3223Z" fill="white"/>
<path d="M81.5801 26.7539V22.7637H85.3594V26.7539H81.5801Z" fill="#3FAFED"/>
</g>
<defs>
<clipPath id="clip0_2057_33183">
<rect width="86" height="28" fill="white"/>
</clipPath>
</defs>
</svg>
