<svg width="24" height="25" viewBox="0 0 24 25" fill="none" xmlns="http://www.w3.org/2000/svg">
<g clip-path="url(#clip0_2057_32811)">
<path d="M10 0.0297852V4.02979H8L12 8.02979L16 4.02979H14V0.0297852H10ZM1 2.02979V4.02979H3L6.6 11.6198L5.25 14.0698C5.09 14.3498 5 14.6798 5 15.0298C5 15.5602 5.21071 16.0689 5.58579 16.444C5.96086 16.8191 6.46957 17.0298 7 17.0298H19V15.0298H7.42C7.29 15.0298 7.17 14.9198 7.17 14.7798L7.2 14.6598L8.1 13.0298H15.55C16.3 13.0298 16.96 12.6198 17.3 11.9998L21.16 4.98979L19.42 4.02979H19.41L18.31 6.02979L15.55 11.0298H8.53L8.4 10.7598L6.16 6.02979L5.21 4.02979L4.27 2.02979H1ZM7 18.0298C6.46957 18.0298 5.96086 18.2405 5.58579 18.6156C5.21071 18.9906 5 19.4994 5 20.0298C5 20.5602 5.21071 21.0689 5.58579 21.444C5.96086 21.8191 6.46957 22.0298 7 22.0298C7.53043 22.0298 8.03914 21.8191 8.41421 21.444C8.78929 21.0689 9 20.5602 9 20.0298C9 19.4994 8.78929 18.9906 8.41421 18.6156C8.03914 18.2405 7.53043 18.0298 7 18.0298ZM17 18.0298C16.4696 18.0298 15.9609 18.2405 15.5858 18.6156C15.2107 18.9906 15 19.4994 15 20.0298C15 20.5602 15.2107 21.0689 15.5858 21.444C15.9609 21.8191 16.4696 22.0298 17 22.0298C17.5304 22.0298 18.0391 21.8191 18.4142 21.444C18.7893 21.0689 19 20.5602 19 20.0298C19 19.4994 18.7893 18.9906 18.4142 18.6156C18.0391 18.2405 17.5304 18.0298 17 18.0298Z" fill="white"/>
<path d="M10 0.0297852V4.02979H8L12 8.02979L16 4.02979H14V0.0297852H10ZM7 18.0298C6.46957 18.0298 5.96086 18.2405 5.58579 18.6156C5.21071 18.9906 5 19.4994 5 20.0298C5 20.5602 5.21071 21.0689 5.58579 21.444C5.96086 21.8191 6.46957 22.0298 7 22.0298C7.53043 22.0298 8.03914 21.8191 8.41421 21.444C8.78929 21.0689 9 20.5602 9 20.0298C9 19.4994 8.78929 18.9906 8.41421 18.6156C8.03914 18.2405 7.53043 18.0298 7 18.0298ZM17 18.0298C16.4696 18.0298 15.9609 18.2405 15.5858 18.6156C15.2107 18.9906 15 19.4994 15 20.0298C15 20.5602 15.2107 21.0689 15.5858 21.444C15.9609 21.8191 16.4696 22.0298 17 22.0298C17.5304 22.0298 18.0391 21.8191 18.4142 21.444C18.7893 21.0689 19 20.5602 19 20.0298C19 19.4994 18.7893 18.9906 18.4142 18.6156C18.0391 18.2405 17.5304 18.0298 17 18.0298Z" fill="url(#paint0_linear_2057_32811)"/>
</g>
<defs>
<linearGradient id="paint0_linear_2057_32811" x1="3" y1="15.4494" x2="10.8236" y2="16.6151" gradientUnits="userSpaceOnUse">
<stop stop-color="#FCF95C"/>
<stop offset="0.791667" stop-color="#31D08F"/>
<stop offset="1" stop-color="#2DE370"/>
</linearGradient>
<clipPath id="clip0_2057_32811">
<rect y="0.0297852" width="24" height="24" fill="white"/>
</clipPath>
</defs>
</svg>
